<svg width="65.000000" height="16.000000" viewBox="0 0 65 16" fill="none" xmlns="http://www.w3.org/2000/svg" xmlns:xlink="http://www.w3.org/1999/xlink">
	<desc>
			Created with Pixso.
	</desc>
	<defs>
		<clipPath id="clip5_338">
			<rect id="Logo" width="65.000000" height="16.000000" fill="white" fill-opacity="0"/>
		</clipPath>
	</defs>
	<rect id="Logo" width="65.000000" height="16.000000" fill="#FFFFFF" fill-opacity="0"/>
	<g clip-path="url(#clip5_338)">
		<path id="Vector" d="M7.47 0C3.34 0 0 3.58 0 7.99C0 12.13 2.93 15.54 6.69 15.95C6.46 13.95 6.55 12.31 6.84 10.96C6.68 10.13 6.31 8.89 5.47 8.01C5.47 8.01 6.02 8.89 6.32 10.08C6.32 10.08 6.32 10.08 6.32 10.09C6.35 10.21 6.38 10.34 6.41 10.47C6.41 10.5 6.42 10.53 6.42 10.57C6.44 10.7 6.47 10.84 6.48 10.98C2.26 10.42 1.36 6.37 1.46 4.84C5.95 5.1 6.87 8.31 7 10.3C8.47 5.15 13.14 4.85 13.53 4.84C13.7 8.8 10.95 11.89 7.67 12.16C7.69 12.05 7.71 11.95 7.74 11.84C7.75 11.81 7.75 11.78 7.76 11.75C7.78 11.67 7.8 11.59 7.83 11.52C7.83 11.49 7.84 11.45 7.85 11.42C7.88 11.34 7.9 11.26 7.93 11.17C7.94 11.16 7.94 11.14 7.95 11.12C7.98 11.02 8.02 10.93 8.05 10.83C8.06 10.82 8.06 10.81 8.06 10.81C8.06 10.81 8.06 10.81 8.06 10.81C8.91 8.63 10.46 7.2 10.46 7.2C7.41 9.08 6.9 13.99 6.82 15.96C7.03 15.98 7.25 15.99 7.47 15.99C11.59 15.99 14.94 12.41 14.94 7.99C14.94 3.58 11.59 0 7.47 0Z" fill="#46A358" fill-opacity="1.000000" fill-rule="nonzero"/>
		<path id="Vector" d="M20.34 5.01C21.33 5.01 22.14 5.46 22.66 6.29L21.68 7.18C21.33 6.66 20.9 6.39 20.32 6.39C19.41 6.39 18.85 7.03 18.85 8C18.85 8.98 19.44 9.65 20.4 9.65C20.91 9.65 21.32 9.46 21.58 9.13L21.58 8.86L20.32 8.86L20.32 7.57L22.99 7.57L22.99 9.39C22.73 9.87 22.37 10.25 21.91 10.55C21.44 10.84 20.92 10.99 20.34 10.99C18.72 11.01 17.39 9.67 17.41 8C17.39 6.34 18.72 4.98 20.34 5.01Z" fill="#46A358" fill-opacity="1.000000" fill-rule="nonzero"/>
		<path id="Vector" d="M26.99 10.88L25.77 9.09L25.19 9.09L25.19 10.88L23.79 10.88L23.79 5.11L25.9 5.11C27.1 5.11 27.98 5.9 27.98 7.1C27.98 7.8 27.66 8.39 27.13 8.74L28.55 10.88L26.99 10.88ZM25.19 7.78L25.91 7.78C26.3 7.78 26.55 7.5 26.55 7.1C26.55 6.69 26.3 6.42 25.91 6.42L25.19 6.42L25.19 7.78Z" fill="#46A358" fill-opacity="1.000000" fill-rule="nonzero"/>
		<path id="Vector" d="M29.11 5.11L32.85 5.11L32.85 6.47L30.51 6.47L30.51 7.26L32.18 7.26L32.18 8.52L30.51 8.52L30.51 9.52L32.95 9.52L32.95 10.88L29.11 10.88L29.11 5.11Z" fill="#46A358" fill-opacity="1.000000" fill-rule="nonzero"/>
		<path id="Vector" d="M33.82 5.11L37.56 5.11L37.56 6.47L35.22 6.47L35.22 7.26L36.89 7.26L36.89 8.52L35.22 8.52L35.22 9.52L37.65 9.52L37.65 10.88L33.82 10.88L33.82 5.11Z" fill="#46A358" fill-opacity="1.000000" fill-rule="nonzero"/>
		<path id="Vector" d="M43.3 5.11L43.3 10.98L42.86 10.98L39.93 7.95L39.93 10.88L38.53 10.88L38.53 5.01L38.98 5.01L41.9 7.99L41.9 5.11L43.3 5.11Z" fill="#46A358" fill-opacity="1.000000" fill-rule="nonzero"/>
		<path id="Vector" d="M44.98 8.92C45.3 9.38 45.63 9.66 46.18 9.66C46.55 9.66 46.73 9.52 46.73 9.24C46.73 8.99 46.61 8.91 46.19 8.71L45.63 8.45C44.74 8.03 44.27 7.49 44.27 6.71C44.27 5.69 45.05 5 46.15 5C47.04 5 47.67 5.46 48 6.17L47.06 6.93C46.8 6.52 46.55 6.32 46.17 6.32C45.87 6.32 45.69 6.45 45.69 6.69C45.69 6.9 45.8 7.02 46.15 7.16L46.77 7.44C47.71 7.86 48.15 8.37 48.15 9.18C48.15 10.3 47.29 10.98 46.18 10.98C45.2 10.98 44.42 10.48 44.03 9.69L44.98 8.92Z" fill="#46A358" fill-opacity="1.000000" fill-rule="nonzero"/>
		<path id="Vector" d="M48.96 5.11L50.36 5.11L50.36 7.22L52.33 7.22L52.33 5.11L53.73 5.11L53.73 10.88L52.33 10.88L52.33 8.57L50.36 8.57L50.36 10.88L48.96 10.88L48.96 5.11Z" fill="#46A358" fill-opacity="1.000000" fill-rule="nonzero"/>
		<path id="Vector" d="M57.43 5.01C59 4.97 60.38 6.34 60.34 7.99C60.37 9.66 59 11.01 57.43 10.98C55.85 11.01 54.5 9.66 54.53 7.99C54.5 6.34 55.85 4.97 57.43 5.01ZM57.44 6.39C56.57 6.39 55.97 7.04 55.97 7.99C55.97 8.48 56.11 8.87 56.38 9.17C56.65 9.45 57 9.6 57.44 9.6C58.27 9.6 58.91 8.96 58.91 7.99C58.91 7.04 58.27 6.39 57.44 6.39Z" fill="#46A358" fill-opacity="1.000000" fill-rule="nonzero"/>
		<path id="Vector" d="M61.15 5.11L63.26 5.11C64.46 5.11 65.34 5.9 65.34 7.1C65.34 8.28 64.44 9.09 63.26 9.09L62.55 9.09L62.55 10.88L61.15 10.88L61.15 5.11ZM63.27 7.78C63.66 7.78 63.91 7.5 63.91 7.1C63.91 6.69 63.66 6.42 63.27 6.42L62.55 6.42L62.55 7.78L63.27 7.78Z" fill="#46A358" fill-opacity="1.000000" fill-rule="nonzero"/>
	</g>
</svg>
