<svg width="77.000000" height="95.000000" viewBox="0 0 77 95" fill="none" xmlns="http://www.w3.org/2000/svg" xmlns:xlink="http://www.w3.org/1999/xlink">
	<desc>
			Created with Pixso.
	</desc>
	<defs>
		<clipPath id="clip5_1505">
			<rect id="Frame" width="55.000000" height="48.000000" transform="translate(19.000000 45.000000)" fill="white" fill-opacity="0"/>
		</clipPath>
		<clipPath id="clip5_1599">
			<rect id="Frame" width="61.000000" height="46.000000" transform="translate(16.000000 0.000000)" fill="white" fill-opacity="0"/>
		</clipPath>
	</defs>
	<circle id="Ellipse 9" cx="37.000000" cy="58.000000" r="37.000000" fill="#46A358" fill-opacity="0.130000"/>
	<rect id="Frame" width="55.000000" height="48.000000" transform="translate(19.000000 45.000000)" fill="#FFFFFF" fill-opacity="0"/>
	<g clip-path="url(#clip5_1505)">
		<path id="Vector" d="M28.12 46.35C40.7 48.02 53.39 48.28 66.02 47.13C66.87 47.06 66.88 45.7 66.02 45.78C53.39 46.92 40.7 46.66 28.12 45C27.27 44.89 27.28 46.24 28.12 46.35Z" fill="#727272" fill-opacity="1.000000" fill-rule="nonzero"/>
		<path id="Vector" d="M31.03 92.03C36.46 92.72 41.93 93.06 47.41 92.98C52.23 92.91 57.92 93.13 62.44 91.22C63.22 90.89 62.88 89.58 62.08 89.92C57.44 91.87 51.5 91.61 46.54 91.64C41.35 91.67 36.17 91.33 31.02 90.67C30.17 90.57 30.17 91.92 31.03 92.03Z" fill="#727272" fill-opacity="1.000000" fill-rule="nonzero"/>
		<path id="Vector" d="M27.6 45.31C21.33 51.16 18.4 59.89 19.09 68.39C19.45 72.79 20.69 77.06 22.55 81.05C24.24 84.68 26.74 89.89 30.49 91.78C31.26 92.17 31.94 91 31.16 90.61C27.68 88.85 25.3 83.79 23.71 80.37C21.85 76.38 20.64 72.04 20.39 67.64C19.94 59.7 22.71 51.72 28.55 46.27C29.19 45.68 28.24 44.72 27.6 45.31Z" fill="#727272" fill-opacity="1.000000" fill-rule="nonzero"/>
		<path id="Vector" d="M65.54 46.95C72.16 51.12 72.78 60.11 72.62 67.19C72.44 75.09 71.47 87.61 62.08 89.92C61.24 90.12 61.6 91.43 62.44 91.22C72.24 88.81 73.65 76.39 73.95 68.03C74.22 60.21 73.53 50.38 66.22 45.78C65.48 45.32 64.81 46.49 65.54 46.95Z" fill="#727272" fill-opacity="1.000000" fill-rule="nonzero"/>
		<path id="Vector" d="M32.57 46.36C27.64 51.7 25.46 60.63 26.29 67.78C26.77 71.94 28.08 76.07 29.06 80.13C30.03 84.2 31.04 88.24 33.26 91.84C33.72 92.58 34.88 91.89 34.42 91.16C32.34 87.78 31.37 84.01 30.45 80.2C29.56 76.52 28.53 72.83 27.84 69.11C26.54 62.03 28.58 52.67 33.52 47.32C34.11 46.68 33.16 45.72 32.57 46.36Z" fill="#727272" fill-opacity="1.000000" fill-rule="nonzero"/>
		<path id="Vector" d="M39.24 46.92C35.56 53.43 33.63 60.83 33.72 68.32C33.77 71.92 34.29 75.52 35.26 78.98C36.48 83.28 38.33 87.36 39.13 91.77C39.29 92.63 40.59 92.26 40.43 91.41C39.72 87.54 38.23 83.95 37.04 80.22C35.89 76.61 35.2 72.88 35.08 69.08C34.85 61.56 36.71 54.14 40.4 47.61C40.83 46.85 39.67 46.17 39.24 46.92Z" fill="#727272" fill-opacity="1.000000" fill-rule="nonzero"/>
		<path id="Vector" d="M43.2 48.22C44.48 55.73 42.93 63.25 43.06 70.8C43.11 74.24 43.88 77.45 44.33 80.84C44.8 84.36 44 87.98 43.56 91.47C43.45 92.33 44.8 92.32 44.91 91.47C45.35 87.95 46.14 84.3 45.67 80.75C45.2 77.11 44.4 73.67 44.39 69.97C44.38 62.57 45.75 55.23 44.5 47.86C44.35 47.01 43.05 47.37 43.2 48.22Z" fill="#727272" fill-opacity="1.000000" fill-rule="nonzero"/>
		<path id="Vector" d="M48.24 47.59C50.61 54.38 50.89 61.54 51.13 68.65C51.39 76.39 51.01 84 49.57 91.61C49.41 92.46 50.71 92.82 50.87 91.97C52.32 84.24 52.74 76.5 52.48 68.65C52.23 61.42 51.94 54.12 49.54 47.23C49.26 46.42 47.96 46.77 48.24 47.59Z" fill="#727272" fill-opacity="1.000000" fill-rule="nonzero"/>
		<path id="Vector" d="M53.9 47.62C54.4 49.15 55.48 50.17 56.3 51.51C57.24 53.05 57.76 54.78 58.04 56.55C58.64 60.41 58.36 64.45 58.35 68.34C58.34 72.57 58.66 77.05 57.57 81.18C56.61 84.81 54.41 87.94 53.67 91.65C53.5 92.5 54.8 92.86 54.97 92.01C55.76 88.04 58.2 84.68 59.06 80.73C59.94 76.69 59.68 72.45 59.69 68.34C59.7 64.54 59.93 60.66 59.43 56.89C59.21 55.22 58.83 53.57 58.12 52.05C57.32 50.35 55.78 49.05 55.2 47.27C54.93 46.44 53.63 46.79 53.9 47.62Z" fill="#727272" fill-opacity="1.000000" fill-rule="nonzero"/>
		<path id="Vector" d="M60.44 47.41C63.12 49.94 64.4 53.97 65.37 57.45C66.37 61.07 66.04 64.94 65.81 68.65C65.36 76.18 64.09 83.7 60.5 90.41C60.09 91.17 61.25 91.86 61.66 91.09C65.49 83.93 66.77 75.89 67.2 67.87C67.41 63.83 67.59 59.88 66.33 55.99C65.23 52.61 64.03 48.94 61.4 46.45C60.77 45.86 59.81 46.82 60.44 47.41Z" fill="#727272" fill-opacity="1.000000" fill-rule="nonzero"/>
		<path id="Vector" d="M32.46 50.79C32.33 51.15 32.17 51.5 32.01 51.85C31.8 52.29 32.04 52.88 32.59 52.87C32.98 52.85 33.29 52.68 33.57 52.41C33.66 52.33 33.75 52.24 33.83 52.15C33.94 52.04 33.8 52.22 33.88 52.11C33.86 52.14 33.77 52.13 33.85 52.14C33.64 51.86 33.42 51.57 33.2 51.28C33.15 51.59 33.08 51.89 33.03 52.19C32.95 52.55 33.13 52.93 33.5 53.03C33.83 53.12 34.25 52.92 34.33 52.56C34.38 52.25 34.45 51.95 34.5 51.64C34.59 51.18 34.31 50.83 33.85 50.79C33.48 50.75 33.15 50.95 32.88 51.19C32.79 51.28 32.71 51.37 32.61 51.46C32.58 51.48 32.55 51.51 32.52 51.54C32.54 51.52 32.55 51.51 32.56 51.5C32.5 51.54 32.5 51.54 32.57 51.51C32.5 51.53 32.5 51.53 32.59 51.51C32.78 51.85 32.97 52.19 33.17 52.53C33.38 52.08 33.58 51.62 33.76 51.15C33.89 50.81 33.62 50.41 33.29 50.32C32.91 50.22 32.6 50.45 32.46 50.79Z" fill="#727272" fill-opacity="1.000000" fill-rule="nonzero"/>
		<path id="Vector" d="M29.13 58.89C29.07 59.26 29.01 59.64 28.94 60.02C28.9 60.32 28.98 60.62 29.25 60.78C29.5 60.92 29.87 60.9 30.07 60.67C30.2 60.53 30.33 60.38 30.46 60.23C30.55 60.13 30.67 59.94 30.77 59.89C30.66 59.92 30.55 59.95 30.43 59.98C30.45 59.98 30.48 59.98 30.5 59.97C30.39 59.94 30.28 59.91 30.16 59.88C30.18 59.89 30.2 59.91 30.21 59.92C30.1 59.73 29.99 59.53 29.88 59.34C29.92 59.72 29.81 60.16 29.77 60.55C29.7 61.11 30.37 61.32 30.78 61.13C31.31 60.89 31.66 60.43 31.85 59.89C31.47 59.99 31.1 60.08 30.73 60.18C30.71 60.1 30.7 60.01 30.68 59.93C30.46 60.77 31.77 61.13 31.98 60.29C32.08 59.9 31.99 59.48 31.68 59.23C31.27 58.9 30.73 59.02 30.55 59.53C30.47 59.75 30.3 59.87 30.1 59.97C30.43 60.16 30.77 60.35 31.11 60.55C31.18 59.95 31.5 58.88 30.68 58.65C29.98 58.45 29.49 59.28 29.12 59.72C29.49 59.94 29.86 60.16 30.24 60.38C30.3 60 30.37 59.62 30.43 59.25C30.49 58.89 30.33 58.52 29.96 58.41C29.64 58.33 29.19 58.52 29.13 58.89Z" fill="#727272" fill-opacity="1.000000" fill-rule="nonzero"/>
		<path id="Vector" d="M28.55 67.03C28.6 67.56 28.65 68.1 28.69 68.62C28.76 69.38 29.77 69.55 30.02 68.8C30.15 68.39 30.34 68.01 30.58 67.64C30.17 67.59 29.76 67.54 29.35 67.48C29.51 67.87 29.61 68.28 29.67 68.7C29.74 69.18 30.32 69.26 30.66 69.11C30.83 69.03 30.97 68.88 31.06 68.72C31.1 68.65 31.13 68.56 31.16 68.48C31.17 68.44 31.18 68.4 31.19 68.36C31.21 68.29 31.2 68.3 31.17 68.37C31.07 68.43 30.98 68.49 30.88 68.55C30.9 68.54 30.93 68.54 30.95 68.53C30.83 68.53 30.71 68.53 30.59 68.53C30.58 68.52 30.57 68.52 30.57 68.51C30.49 68.43 30.41 68.35 30.33 68.27C30.34 68.28 30.35 68.3 30.36 68.32C30.34 68.14 30.32 67.97 30.29 67.8C30.29 67.82 30.29 67.84 30.29 67.86C30.24 68.22 30.37 68.59 30.76 68.69C31.07 68.78 31.54 68.59 31.59 68.22C31.63 67.93 31.6 67.66 31.39 67.44C31.21 67.26 30.94 67.18 30.68 67.2C30.42 67.23 30.2 67.39 30.06 67.61C30 67.7 29.92 67.83 29.91 67.94C29.91 68.1 29.84 67.99 29.99 67.92C30.31 68.06 30.64 68.19 30.97 68.33C30.91 67.91 30.81 67.51 30.65 67.11C30.43 66.58 29.75 66.43 29.42 66.95C29.12 67.41 28.9 67.91 28.73 68.43C29.16 68.49 29.6 68.55 30.05 68.61C30 68.08 29.95 67.55 29.91 67.02C29.88 66.65 29.62 66.34 29.24 66.34C28.89 66.36 28.52 66.67 28.55 67.03Z" fill="#727272" fill-opacity="1.000000" fill-rule="nonzero"/>
		<path id="Vector" d="M30.17 76.57C30.22 77.35 30.61 78.03 31.29 78.43C31.73 78.69 32.29 78.36 32.3 77.84C32.3 77.45 32.39 77.08 32.55 76.72C32.17 76.81 31.8 76.91 31.42 77.01C31.6 77.24 31.8 77.44 32.02 77.62C32.38 77.92 33.03 77.87 33.15 77.32C33.17 77.2 33.2 77.1 33.24 76.99C32.87 77.09 32.5 77.18 32.12 77.28C32.16 77.26 32.18 77.29 32.18 77.36C32.32 77.7 32.81 77.77 33.1 77.6C33.44 77.4 33.48 77.02 33.34 76.68C33.28 76.54 33.19 76.42 33.07 76.33C32.65 76 32.14 76.12 31.94 76.63C31.9 76.74 31.87 76.85 31.85 76.96C32.22 76.86 32.59 76.76 32.97 76.67C32.75 76.48 32.55 76.28 32.37 76.06C32.01 75.62 31.42 75.94 31.25 76.35C31.05 76.83 30.96 77.33 30.95 77.84C31.29 77.65 31.62 77.45 31.96 77.26C31.7 77.11 31.53 76.87 31.51 76.57C31.47 75.71 30.12 75.7 30.17 76.57Z" fill="#727272" fill-opacity="1.000000" fill-rule="nonzero"/>
		<path id="Vector" d="M32.94 85.84C33.1 86.25 33.29 86.62 33.55 86.98C33.94 87.53 34.74 87.33 34.8 86.64C34.81 86.6 34.88 86.1 34.85 86.07C34.66 86.2 34.47 86.32 34.28 86.44C34.32 86.5 34.36 86.56 34.41 86.62C34.58 86.84 34.79 87.02 35.07 87.1C35.28 87.15 35.52 87.13 35.71 87.01C35.83 86.93 35.91 86.83 35.98 86.7C36 86.65 36.02 86.59 36.04 86.54C36.15 86.21 35.95 86.16 35.46 86.38C35.72 87.2 37.03 86.85 36.75 86.02C36.56 85.45 36.02 85.08 35.42 85.3C35.18 85.4 34.97 85.58 34.85 85.81C34.81 85.89 34.68 86.2 34.73 86.29C34.99 86.14 35.24 85.98 35.5 85.84C35.47 85.79 35.43 85.75 35.4 85.71C35.19 85.27 34.56 85.02 34.11 85.18C33.48 85.41 33.51 86.08 33.46 86.64C33.88 86.53 34.29 86.42 34.72 86.3C34.53 86.05 34.37 85.78 34.25 85.49C33.93 84.69 32.63 85.03 32.94 85.84Z" fill="#727272" fill-opacity="1.000000" fill-rule="nonzero"/>
		<path id="Vector" d="M40.13 50.98C39.65 51.34 39.24 51.78 38.98 52.33C38.63 53.05 39.44 53.62 40.04 53.15C40.18 53.04 40.33 52.92 40.47 52.81C40.53 52.76 40.59 52.71 40.66 52.66C40.69 52.64 40.72 52.61 40.76 52.59C40.87 52.51 40.81 52.52 40.58 52.62C40.47 52.59 40.36 52.56 40.24 52.53C40.25 52.54 40.27 52.55 40.28 52.56C40.2 52.48 40.12 52.4 40.04 52.32C40.02 52.26 40.01 52.2 39.99 52.15C40 52.08 40 52.07 39.98 52.13C39.95 52.15 39.94 52.3 39.94 52.33C39.91 52.53 39.93 52.74 40.04 52.92C40.14 53.1 40.31 53.25 40.5 53.3C40.59 53.32 40.69 53.33 40.77 53.33C40.85 53.33 40.93 53.32 41 53.29C41.09 53.26 41.06 53.25 40.9 53.26C40.8 53.2 40.7 53.15 40.6 53.09C40.62 53.1 40.63 53.11 40.64 53.13C40.59 53.03 40.53 52.93 40.47 52.83C40.47 52.84 40.48 52.86 40.48 52.88C40.5 52.7 40.53 52.53 40.55 52.35C40.54 52.37 40.54 52.38 40.53 52.39C40.12 53.16 41.28 53.84 41.69 53.07C41.86 52.75 41.82 52.38 41.55 52.13C41.41 51.99 41.21 51.91 41.02 51.91C40.9 51.9 40.77 51.97 40.67 51.96C40.79 52 40.9 52.03 41.02 52.05C41 52.04 40.98 52.03 40.97 52.02C41.05 52.1 41.13 52.18 41.21 52.26C41.2 52.24 41.19 52.23 41.18 52.21C41.21 52.32 41.24 52.43 41.27 52.55C41.26 52.47 41.28 52.51 41.31 52.38C41.34 52.23 41.35 52.05 41.31 51.89C41.24 51.57 40.99 51.33 40.67 51.28C40.33 51.21 40.11 51.39 39.85 51.59C39.59 51.78 39.34 51.99 39.08 52.19C39.44 52.46 39.79 52.73 40.14 53.01C40.3 52.67 40.51 52.37 40.81 52.14C41.1 51.92 41.25 51.55 41.05 51.22C40.89 50.93 40.43 50.76 40.13 50.98Z" fill="#727272" fill-opacity="1.000000" fill-rule="nonzero"/>
		<path id="Vector" d="M37.5 58.59C37.39 59.13 37.28 59.67 37.17 60.22C37.03 60.9 37.77 61.3 38.29 60.87C38.45 60.75 38.58 60.59 38.68 60.42C38.75 60.3 38.83 60.06 38.86 60C38.78 60.08 38.7 60.17 38.62 60.25C38.64 60.23 38.66 60.22 38.68 60.2C38.57 60.23 38.46 60.26 38.34 60.29C38.37 60.29 38.4 60.29 38.42 60.28C38.31 60.25 38.2 60.22 38.08 60.19C37.98 60.14 37.97 59.97 38 60.2C38.01 60.26 38.02 60.31 38.04 60.36C38.11 60.56 38.22 60.74 38.39 60.87C38.54 60.99 38.73 61.05 38.93 61.04C39.05 61.04 39.16 61.01 39.27 60.95C39.33 60.93 39.37 60.9 39.42 60.86C39.54 60.78 39.5 60.78 39.33 60.86C39.22 60.83 39.11 60.8 38.99 60.77C39.01 60.78 39.01 60.79 39.02 60.83C39.31 61.64 40.61 61.29 40.32 60.47C40.2 60.11 40.01 59.78 39.67 59.61C39.49 59.51 39.26 59.48 39.07 59.53C38.87 59.57 38.75 59.71 38.58 59.79C38.69 59.76 38.81 59.72 38.92 59.7C38.9 59.7 38.87 59.7 38.85 59.7C38.96 59.73 39.07 59.76 39.19 59.79C39.31 60 39.35 60.03 39.3 59.88C39.29 59.82 39.28 59.76 39.27 59.71C39.24 59.59 39.19 59.47 39.13 59.37C38.96 59.11 38.69 58.93 38.38 58.94C38.07 58.94 37.8 59.12 37.65 59.39C37.53 59.61 37.54 59.75 37.33 59.92C37.71 60.14 38.08 60.35 38.46 60.58C38.57 60.03 38.68 59.49 38.79 58.95C38.97 58.1 37.68 57.74 37.5 58.59Z" fill="#727272" fill-opacity="1.000000" fill-rule="nonzero"/>
		<path id="Vector" d="M36.98 65.5C36.84 66.22 36.75 66.96 36.73 67.69C36.71 68.2 37.31 68.53 37.74 68.28C37.94 68.16 38.08 68 38.19 67.8C38.23 67.72 38.35 67.55 38.33 67.48C38.32 67.47 38.28 67.53 38.3 67.52C38.19 67.55 38.07 67.58 37.96 67.61C37.95 67.61 37.94 67.61 37.93 67.62C37.85 67.54 37.76 67.46 37.68 67.37C37.76 67.47 37.75 67.46 37.76 67.57C37.81 68.12 38.47 68.49 38.91 68.05C38.96 67.99 39.01 67.94 39.06 67.89C38.97 67.94 38.87 67.93 38.77 67.87C38.72 67.78 38.66 67.68 38.6 67.58C38.61 67.6 38.62 67.63 38.63 67.66C38.76 68 39.09 68.24 39.46 68.13C39.79 68.04 40.06 67.64 39.93 67.3C39.58 66.34 38.56 66.46 37.96 67.09C38.34 67.25 38.72 67.41 39.11 67.57C39.05 66.91 38.73 66.21 37.96 66.26C37.64 66.27 37.37 66.46 37.2 66.73C37.14 66.82 37.1 66.93 37.06 67.03C37.01 67.14 36.92 67.18 37.06 67.1C37.4 67.3 37.73 67.49 38.07 67.69C38.09 67.07 38.16 66.46 38.28 65.86C38.44 65.01 37.15 64.65 36.98 65.5Z" fill="#727272" fill-opacity="1.000000" fill-rule="nonzero"/>
		<path id="Vector" d="M37.65 73.22C37.8 73.83 37.98 74.42 38.2 75C38.37 75.47 38.94 75.67 39.33 75.3C39.5 75.13 39.61 74.93 39.67 74.7C39.69 74.61 39.71 74.49 39.72 74.4C39.73 74.11 39.7 74.35 39.72 74.34C39.61 74.37 39.5 74.4 39.38 74.43C39.41 74.43 39.44 74.42 39.47 74.42C39.36 74.39 39.25 74.36 39.13 74.33C39.04 74.29 39.07 74.25 39.14 74.38C39.18 74.44 39.21 74.49 39.25 74.55C39.39 74.73 39.56 74.85 39.79 74.89C39.99 74.91 40.19 74.86 40.36 74.75C40.45 74.68 40.54 74.6 40.6 74.5C40.63 74.45 40.65 74.39 40.67 74.34C40.76 74.16 40.69 74.21 40.45 74.48C40.33 74.48 40.21 74.48 40.09 74.48C40.03 74.43 39.98 74.38 39.93 74.34C39.9 74.23 39.87 74.11 39.84 74C39.84 74.02 39.84 74.05 39.84 74.08C39.83 74.95 41.17 74.95 41.19 74.08C41.2 73.62 40.88 73.27 40.45 73.18C40.21 73.13 39.98 73.18 39.79 73.32C39.69 73.38 39.62 73.46 39.55 73.56C39.54 73.58 39.53 73.61 39.51 73.64C39.39 73.87 39.42 73.86 39.61 73.63C39.72 73.6 39.83 73.56 39.95 73.54C39.93 73.54 39.9 73.54 39.88 73.55C39.99 73.58 40.11 73.61 40.22 73.64C40.41 73.73 40.32 73.7 40.24 73.57C40.19 73.47 40.12 73.38 40.04 73.31C39.78 73.08 39.45 73.02 39.13 73.13C38.87 73.22 38.68 73.42 38.55 73.65C38.48 73.78 38.44 73.91 38.41 74.06C38.4 74.12 38.41 74.3 38.37 74.34C38.75 74.44 39.12 74.54 39.5 74.64C39.28 74.06 39.1 73.46 38.95 72.86C38.73 72.02 37.43 72.38 37.65 73.22Z" fill="#727272" fill-opacity="1.000000" fill-rule="nonzero"/>
		<path id="Vector" d="M38.33 79.68C38.57 80.4 38.88 81.09 39.26 81.74C39.53 82.2 40.14 82.15 40.42 81.74C40.5 81.62 40.55 81.51 40.59 81.38C40.59 81.34 40.59 81.3 40.6 81.26C40.67 81 40.61 81.01 40.41 81.29C40.28 81.29 40.17 81.29 40.05 81.29C39.86 81.23 39.94 81.25 40.04 81.35C40.11 81.43 40.2 81.51 40.3 81.57C40.49 81.67 40.72 81.72 40.94 81.7C41.44 81.66 41.79 81.33 41.95 80.87C42.25 80.06 40.95 79.7 40.66 80.51C40.74 80.29 40.95 80.41 40.92 80.3C40.89 80.23 40.73 80.12 40.66 80.08C40.44 79.96 40.18 79.93 39.94 80.01C39.72 80.08 39.54 80.25 39.43 80.45C39.33 80.63 39.36 80.9 39.25 81.06C39.64 81.06 40.03 81.06 40.41 81.06C40.09 80.5 39.82 79.93 39.62 79.33C39.35 78.51 38.05 78.86 38.33 79.68Z" fill="#727272" fill-opacity="1.000000" fill-rule="nonzero"/>
		<path id="Vector" d="M40.1 87.4C40.1 87.77 40.15 88.14 40.27 88.5C40.36 88.75 40.56 88.94 40.83 88.98C41.08 89.01 41.39 88.9 41.5 88.65C41.58 88.49 41.65 88.33 41.73 88.17C41.76 88.09 41.8 88.02 41.83 87.95C41.85 87.91 41.87 87.87 41.89 87.83C41.79 87.89 41.69 87.95 41.59 88.01C41.6 88 41.62 88 41.63 87.99C41.51 87.99 41.4 87.99 41.28 87.99C41.25 87.98 41.23 87.97 41.2 87.96C41.12 87.88 41.04 87.8 40.96 87.72C40.89 87.6 40.96 87.7 40.98 87.77C41.01 87.85 41.03 87.91 41.06 87.99C41.11 88.13 41.15 88.27 41.2 88.41C41.32 88.76 41.66 88.98 42.03 88.88C42.36 88.79 42.62 88.4 42.5 88.05C42.31 87.49 42.15 86.57 41.37 86.67C40.76 86.76 40.56 87.49 40.33 87.97C40.74 88.03 41.15 88.08 41.56 88.13C41.48 87.87 41.44 87.65 41.43 87.39C41.43 87.04 41.13 86.7 40.76 86.71C40.41 86.73 40.09 87.02 40.1 87.4Z" fill="#727272" fill-opacity="1.000000" fill-rule="nonzero"/>
		<path id="Vector" d="M46.28 88.22C46.24 88.52 46.2 88.83 46.17 89.14C46.13 89.43 46.4 89.72 46.66 89.79C46.97 89.88 47.25 89.73 47.42 89.48C47.54 89.31 47.66 89.14 47.78 88.96C47.84 88.88 47.89 88.8 47.95 88.72C47.97 88.69 47.99 88.66 48.02 88.63C48.11 88.49 48.1 88.5 47.98 88.65C47.87 88.68 47.76 88.72 47.64 88.74C47.66 88.74 47.68 88.74 47.7 88.74C47.59 88.71 47.48 88.68 47.36 88.65C47.23 88.42 47.18 88.37 47.23 88.52C47.24 88.57 47.25 88.63 47.26 88.68C47.28 88.8 47.31 88.91 47.33 89.02C47.38 89.25 47.41 89.53 47.53 89.74C47.64 89.94 47.84 90.11 48.06 90.17C48.41 90.27 48.69 90.09 48.89 89.82C49.11 89.53 48.93 89.06 48.65 88.9C48.3 88.69 47.95 88.85 47.73 89.14C47.72 89.15 47.71 89.17 47.7 89.18C47.89 89.06 48.09 88.95 48.28 88.84C48.27 88.84 48.26 88.85 48.24 88.85C48.36 88.88 48.47 88.91 48.58 88.94C48.7 89 48.77 89.33 48.71 88.99C48.69 88.9 48.67 88.81 48.65 88.71C48.61 88.55 48.58 88.38 48.54 88.21C48.46 87.86 48.25 87.52 47.89 87.41C47.48 87.3 47.15 87.54 46.93 87.84C46.7 88.15 46.48 88.47 46.26 88.79C46.68 88.9 47.1 89.01 47.52 89.13C47.55 88.82 47.59 88.51 47.62 88.21C47.67 87.84 47.28 87.53 46.95 87.53C46.55 87.54 46.32 87.86 46.28 88.22Z" fill="#727272" fill-opacity="1.000000" fill-rule="nonzero"/>
		<path id="Vector" d="M46.92 75.87C46.76 76.59 46.67 77.33 46.69 78.07C46.7 78.7 47.63 79.03 47.94 78.41C48.08 78.14 48.21 77.87 48.35 77.6C48.45 77.41 48.52 77.16 48.7 77.02C48.6 77.08 48.5 77.13 48.4 77.19C48.4 77.19 48.4 77.18 48.41 77.18C48.19 77.01 47.97 76.85 47.75 76.68C47.84 77 47.93 77.32 48.01 77.64C48.12 78.05 48.63 78.29 49 78.05C49.06 78.01 49.12 77.96 49.19 77.92C49.9 77.45 49.23 76.27 48.51 76.76C48.45 76.8 48.38 76.84 48.32 76.88C48.65 77.02 48.98 77.15 49.31 77.29C49.22 76.97 49.14 76.65 49.05 76.33C48.97 76.04 48.7 75.83 48.4 75.83C47.45 75.85 47.13 77.03 46.78 77.73C47.2 77.85 47.62 77.96 48.04 78.08C48.03 77.45 48.08 76.85 48.22 76.23C48.41 75.38 47.11 75.02 46.92 75.87Z" fill="#727272" fill-opacity="1.000000" fill-rule="nonzero"/>
		<path id="Vector" d="M45.64 65.75C45.67 66.28 45.7 66.81 45.73 67.34C45.76 68.01 46.62 68.27 46.98 67.69C47.24 67.27 47.5 66.86 47.76 66.45C47.38 66.45 46.99 66.45 46.6 66.45C46.7 66.61 46.76 66.76 46.76 66.95C46.8 67.54 47.47 67.83 47.91 67.42C48.25 67.12 48.47 66.75 48.64 66.32C48.31 66.45 47.98 66.59 47.65 66.73C47.65 66.73 47.65 66.74 47.65 66.75C47.59 66.65 47.53 66.55 47.47 66.45C47.49 66.48 47.49 66.51 47.51 66.54C47.65 66.87 47.95 67.11 48.34 67.01C48.65 66.92 48.95 66.52 48.81 66.18C48.69 65.9 48.57 65.73 48.33 65.55C47.95 65.27 47.48 65.59 47.34 65.96C47.26 66.17 47.12 66.32 46.96 66.47C47.34 66.63 47.73 66.79 48.11 66.95C48.09 66.52 47.98 66.13 47.76 65.76C47.5 65.32 46.87 65.34 46.6 65.76C46.34 66.18 46.08 66.59 45.82 67C46.24 67.12 46.66 67.23 47.08 67.35C47.05 66.82 47.02 66.29 46.99 65.76C46.93 64.89 45.59 64.88 45.64 65.75Z" fill="#727272" fill-opacity="1.000000" fill-rule="nonzero"/>
		<path id="Vector" d="M46 56.81C45.96 57.15 45.94 57.5 45.95 57.84C45.97 58.31 46.53 58.74 46.97 58.43C47.19 58.26 47.33 58.08 47.41 57.81C47.42 57.75 47.44 57.68 47.45 57.61C47.46 57.56 47.49 57.55 47.45 57.6C47.21 57.81 46.97 58.12 46.59 57.67C46.63 57.72 46.62 57.72 46.59 57.66C46.63 57.73 46.65 57.8 46.68 57.87C46.73 57.99 46.81 58.09 46.9 58.18C47.18 58.46 47.59 58.51 47.93 58.32C48.25 58.14 48.35 57.7 48.17 57.39C47.98 57.07 47.57 56.97 47.25 57.15C47.24 57.16 47.22 57.17 47.21 57.18C47.32 57.14 47.43 57.11 47.55 57.09C47.58 57.08 47.91 57.26 47.88 57.27C47.9 57.31 47.9 57.31 47.89 57.28C47.87 57.24 47.86 57.2 47.84 57.17C47.79 57.04 47.72 56.91 47.62 56.81C47.41 56.58 47.06 56.46 46.76 56.56C46.46 56.65 46.27 56.89 46.18 57.17C46.15 57.24 46.15 57.3 46.13 57.37C46.12 57.4 46.11 57.42 46.1 57.46C46.09 57.51 46.09 57.51 46.11 57.46C46.14 57.37 46.19 57.3 46.28 57.26C46.62 57.45 46.96 57.65 47.3 57.84C47.29 57.5 47.31 57.16 47.35 56.82C47.39 56.46 47.01 56.13 46.67 56.14C46.28 56.16 46.05 56.44 46 56.81Z" fill="#727272" fill-opacity="1.000000" fill-rule="nonzero"/>
		<path id="Vector" d="M45.59 49.88C45.46 50.37 45.53 50.88 45.79 51.32C46.1 51.85 46.83 51.69 47.02 51.16C47.09 50.96 46.98 51.28 47.05 51.08C47.08 51 47.1 51.04 47.03 51.07C46.83 51.18 46.55 51.1 46.49 50.83C46.57 51.19 46.97 51.4 47.32 51.31C47.67 51.21 47.87 50.83 47.79 50.47C47.67 49.96 47.11 49.68 46.61 49.8C46.12 49.92 45.89 50.35 45.72 50.79C46.13 50.74 46.54 50.68 46.95 50.63C46.89 50.51 46.88 50.52 46.86 50.38C46.87 50.45 46.87 50.36 46.87 50.34C46.88 50.14 46.84 50.42 46.89 50.23C46.97 49.89 46.77 49.48 46.41 49.39C46.07 49.32 45.68 49.51 45.59 49.88Z" fill="#727272" fill-opacity="1.000000" fill-rule="nonzero"/>
		<path id="Vector" d="M26.36 48.28C26.16 48.54 25.99 48.82 25.83 49.11C25.56 49.58 26.01 50.32 26.59 50.1C26.79 50.02 26.99 49.94 27.2 49.86C26.93 49.71 26.65 49.55 26.37 49.39C26.41 49.49 26.42 49.56 26.42 49.67C26.42 50.01 26.73 50.37 27.09 50.34C27.43 50.31 27.72 50.23 28.02 50.09C28.34 49.93 28.43 49.46 28.26 49.17C28.06 48.83 27.67 48.76 27.34 48.92C27.27 48.95 27.15 48.98 27.09 48.99C27.32 49.21 27.54 49.44 27.77 49.67C27.77 49.45 27.74 49.23 27.67 49.03C27.55 48.71 27.2 48.42 26.84 48.56C26.63 48.63 26.43 48.71 26.22 48.79C26.47 49.12 26.73 49.45 26.98 49.78C27.14 49.49 27.32 49.22 27.51 48.96C27.73 48.66 27.56 48.2 27.27 48.03C26.94 47.84 26.58 47.99 26.36 48.28Z" fill="#727272" fill-opacity="1.000000" fill-rule="nonzero"/>
		<path id="Vector" d="M22.56 55.87C22.3 56.44 22.08 57.01 21.9 57.61C21.79 57.98 22.04 58.32 22.37 58.44C22.66 58.55 22.97 58.48 23.22 58.32C23.33 58.25 23.4 58.18 23.48 58.08C23.79 57.71 23.36 58.19 23.11 57.88C23.05 57.78 22.99 57.68 22.94 57.58C22.9 57.46 22.93 57.72 22.93 57.71C22.94 57.82 22.97 57.92 23.02 58.02C23.12 58.2 23.31 58.34 23.51 58.39C23.87 58.49 24.34 58.35 24.49 57.98C24.64 57.65 24.59 57.26 24.25 57.06C23.97 56.89 23.47 56.96 23.33 57.3C23.34 57.28 23.36 57.27 23.38 57.25C23.47 57.19 23.57 57.14 23.67 57.08C23.81 57.12 23.94 57.16 24.08 57.2C24.13 57.3 24.19 57.4 24.25 57.5C24.29 57.62 24.26 57.31 24.25 57.28C24.21 57.14 24.15 57.02 24.06 56.92C23.9 56.75 23.68 56.64 23.44 56.63C23.22 56.62 23.02 56.69 22.84 56.81C22.75 56.87 22.68 56.94 22.61 57.02C22.34 57.34 22.53 57.07 22.73 57.14C22.89 57.42 23.05 57.7 23.21 57.97C23.35 57.49 23.52 57.02 23.73 56.56C23.87 56.23 23.82 55.84 23.48 55.64C23.19 55.46 22.7 55.54 22.56 55.87Z" fill="#727272" fill-opacity="1.000000" fill-rule="nonzero"/>
		<path id="Vector" d="M21.07 63.85C20.92 64.62 20.92 65.38 21.08 66.15C21.15 66.54 21.56 66.68 21.91 66.63C22.1 66.59 22.29 66.48 22.43 66.33C22.48 66.27 22.54 66.19 22.59 66.12C22.61 66.08 22.64 66.04 22.66 65.99C22.7 65.93 22.69 65.94 22.61 66C22.49 66 22.37 66 22.25 66C22.28 66.01 22.31 66.02 22.34 66.03C22.25 65.97 22.15 65.91 22.05 65.85C22 65.75 21.99 65.75 22.04 65.86C22.06 65.92 22.08 65.97 22.11 66.03C22.18 66.16 22.28 66.27 22.4 66.35C22.7 66.55 22.98 66.54 23.3 66.39C23.63 66.24 23.71 65.76 23.54 65.47C23.34 65.12 22.95 65.07 22.62 65.22C22.6 65.23 22.57 65.25 22.55 65.26C22.73 65.23 22.9 65.21 23.07 65.19C23.04 65.18 23.02 65.17 22.99 65.16C23.09 65.22 23.19 65.28 23.29 65.34C23.31 65.43 23.31 65.44 23.29 65.37C23.27 65.3 23.24 65.23 23.21 65.17C23.17 65.09 23.12 65.02 23.06 64.95C22.87 64.75 22.61 64.66 22.34 64.68C22.1 64.71 21.89 64.82 21.73 64.99C21.65 65.07 21.58 65.17 21.52 65.27C21.51 65.3 21.49 65.32 21.47 65.35C21.39 65.48 21.41 65.46 21.55 65.31C21.82 65.47 22.1 65.63 22.38 65.79C22.27 65.26 22.27 64.73 22.37 64.2C22.43 63.84 22.27 63.47 21.9 63.37C21.56 63.29 21.13 63.49 21.07 63.85Z" fill="#727272" fill-opacity="1.000000" fill-rule="nonzero"/>
		<path id="Vector" d="M22.03 73.61C22.21 73.99 22.4 74.37 22.59 74.75C22.75 75.08 23.21 75.16 23.51 74.99C23.75 74.85 23.91 74.64 23.99 74.37C24.03 74.25 24.05 74.09 24.04 73.97C24.02 73.82 24.08 73.86 24.01 73.93C23.91 73.99 23.81 74.05 23.71 74.11C23.7 74.11 23.69 74.11 23.69 74.11C23.57 74.08 23.46 74.05 23.34 74.02C23.58 74.16 23.69 74.38 24.03 74.38C24.43 74.38 24.52 74.14 24.77 73.9C24.67 73.96 24.57 74.01 24.47 74.07C24.34 73.99 24.21 73.91 24.08 73.83C24.13 74.19 24.59 74.38 24.91 74.3C25.29 74.19 25.43 73.83 25.38 73.47C25.32 73.06 24.94 72.76 24.54 72.72C24.08 72.67 23.78 72.92 23.56 73.3C23.64 73.22 23.72 73.14 23.8 73.06C23.78 73.08 23.75 73.1 23.73 73.11C23.84 73.08 23.95 73.05 24.07 73.02C24.05 73.02 24.02 73.02 24 73.02C24.11 73.05 24.22 73.09 24.34 73.11C24.26 73.07 24.05 72.84 23.87 72.79C23.61 72.72 23.34 72.77 23.13 72.93C22.95 73.07 22.82 73.28 22.75 73.5C22.7 73.64 22.75 73.92 22.68 74.02C22.76 73.94 22.84 73.86 22.92 73.78C22.9 73.79 22.87 73.81 22.84 73.82C23.14 73.9 23.45 73.98 23.76 74.06C23.57 73.69 23.38 73.31 23.2 72.93C22.8 72.14 21.64 72.83 22.03 73.61Z" fill="#727272" fill-opacity="1.000000" fill-rule="nonzero"/>
		<path id="Vector" d="M26.18 83.65C26.16 84.24 26.76 84.56 27.26 84.41C27.51 84.33 27.68 84.16 27.8 83.94C27.81 83.91 27.83 83.87 27.85 83.83C27.95 83.67 27.85 83.72 27.55 83.97C27.41 83.96 27.47 83.96 27.57 84.01C27.89 84.19 28.3 84.09 28.49 83.77C28.67 83.46 28.56 83.02 28.25 82.84C27.91 82.66 27.54 82.55 27.17 82.7C26.98 82.78 26.82 82.92 26.72 83.1C26.68 83.15 26.65 83.21 26.64 83.27C26.63 83.28 26.62 83.3 26.61 83.32C26.84 83.06 27.08 83.04 27.34 83.25C27.4 83.35 27.46 83.45 27.51 83.55C27.52 83.59 27.52 83.62 27.53 83.66C27.54 83.3 27.21 82.96 26.86 82.98C26.47 83 26.19 83.28 26.18 83.65Z" fill="#727272" fill-opacity="1.000000" fill-rule="nonzero"/>
		<path id="Vector" d="M51.03 50.15C51.11 50.56 51.25 50.94 51.43 51.31C51.59 51.66 52.05 51.7 52.35 51.55C52.52 51.47 52.66 51.32 52.75 51.15C52.77 51.1 52.79 51.05 52.82 50.99C52.96 50.68 52.81 51.15 52.47 51.11C52.36 51.08 52.24 51.05 52.13 51.02C52.05 50.99 52.24 51.11 52.24 51.11C52.31 51.16 52.36 51.19 52.45 51.23C52.62 51.31 52.8 51.32 52.99 51.29C53.39 51.23 53.63 50.96 53.78 50.6C53.92 50.26 53.63 49.85 53.31 49.76C52.92 49.66 52.62 49.9 52.48 50.24C52.64 49.95 52.84 49.88 53.07 50.05C53.05 50.03 53.03 50.01 53.01 50C52.92 49.91 52.76 49.82 52.65 49.79C52.43 49.73 52.2 49.77 52.01 49.88C51.85 49.98 51.74 50.13 51.67 50.29C51.65 50.33 51.62 50.37 51.61 50.42C51.56 50.56 51.58 50.43 51.67 50.39C51.97 50.47 52.28 50.55 52.58 50.63C52.46 50.37 52.38 50.09 52.32 49.8C52.26 49.44 51.83 49.24 51.49 49.33C51.13 49.42 50.97 49.79 51.03 50.15Z" fill="#727272" fill-opacity="1.000000" fill-rule="nonzero"/>
		<path id="Vector" d="M52.59 57.89C52.68 58.32 52.77 58.75 52.85 59.18C53 59.89 53.94 59.76 54.15 59.18C54.22 58.98 54.33 58.86 54.48 58.72C54.13 58.68 53.78 58.63 53.42 58.59C53.54 58.86 53.66 59.13 53.78 59.4C53.91 59.71 54.43 59.85 54.7 59.65C54.86 59.53 54.99 59.42 55.09 59.24C55.13 59.17 55.17 59.1 55.19 59.02C55.2 58.99 55.21 58.96 55.23 58.93C55.34 58.74 55.13 58.67 54.61 58.75C54.56 59.11 54.95 59.42 55.28 59.42C55.68 59.42 55.9 59.11 55.95 58.75C56.03 58.18 55.5 57.67 54.96 57.67C54.69 57.67 54.44 57.79 54.26 57.99C54.17 58.08 54.11 58.18 54.05 58.29C54.02 58.36 53.88 58.58 54.02 58.48C54.32 58.56 54.63 58.64 54.94 58.72C54.82 58.45 54.7 58.18 54.58 57.91C54.4 57.48 53.81 57.51 53.53 57.77C53.2 58.06 53 58.42 52.85 58.82C53.28 58.82 53.71 58.82 54.14 58.82C54.06 58.39 53.97 57.97 53.88 57.54C53.72 56.68 52.42 57.04 52.59 57.89Z" fill="#727272" fill-opacity="1.000000" fill-rule="nonzero"/>
		<path id="Vector" d="M53.77 68.24C53.73 68.57 53.77 68.92 53.86 69.25C53.97 69.64 54.49 69.9 54.85 69.65C55.09 69.48 55.23 69.3 55.33 69.03C55.36 68.97 55.38 68.89 55.4 68.82C55.44 68.68 55.4 68.87 55.29 68.89C55.17 68.89 55.05 68.89 54.93 68.89C54.82 68.84 54.75 68.78 54.73 68.68C54.71 68.63 54.72 68.65 54.75 68.72C54.76 68.76 54.77 68.8 54.79 68.84C54.86 69.05 54.97 69.22 55.14 69.36C55.51 69.66 55.92 69.61 56.28 69.33C56.57 69.1 56.52 68.61 56.28 68.37C56 68.09 55.62 68.15 55.33 68.37C55.32 68.38 55.3 68.39 55.29 68.41C55.39 68.35 55.49 68.29 55.58 68.23C55.57 68.24 55.55 68.24 55.53 68.24C55.65 68.24 55.77 68.24 55.89 68.24C55.97 68.26 56.09 68.51 56.04 68.36C56 68.24 55.96 68.12 55.89 68.01C55.71 67.71 55.37 67.53 55.02 67.57C54.71 67.6 54.45 67.8 54.28 68.06C54.21 68.17 54.16 68.3 54.12 68.42C54.1 68.47 54.08 68.52 54.07 68.56C54.07 68.62 54.06 68.55 54.17 68.47C54.5 68.61 54.83 68.74 55.16 68.88C55.1 68.66 55.09 68.46 55.11 68.23C55.15 67.87 54.77 67.55 54.44 67.55C54.05 67.56 53.82 67.87 53.77 68.24Z" fill="#727272" fill-opacity="1.000000" fill-rule="nonzero"/>
		<path id="Vector" d="M53.4 76.2C53.36 76.64 53.4 77.07 53.47 77.51C53.55 78.02 54.27 78.15 54.59 77.81C54.71 77.68 54.83 77.56 54.96 77.45C55.07 77.35 55.18 77.25 55.27 77.19C54.95 77.05 54.62 76.92 54.29 76.78C54.33 76.9 54.33 76.76 54.32 76.89C54.32 76.8 54.26 76.98 54.31 76.9C54.13 77.22 54.23 77.64 54.55 77.82C54.86 78 55.29 77.91 55.47 77.58C55.66 77.23 55.72 76.81 55.59 76.42C55.46 76.05 54.97 75.74 54.6 76.02C54.26 76.27 53.94 76.54 53.65 76.85C54.03 76.95 54.4 77.04 54.78 77.14C54.73 76.85 54.73 76.51 54.75 76.19C54.78 75.84 54.43 75.5 54.08 75.51C53.69 75.54 53.43 75.82 53.4 76.2Z" fill="#727272" fill-opacity="1.000000" fill-rule="nonzero"/>
		<path id="Vector" d="M52.97 85.03C52.73 85.44 52.54 85.89 52.44 86.36C52.36 86.72 52.55 87.09 52.91 87.19C53.29 87.3 53.61 87.07 53.74 86.72C53.78 86.61 53.92 86.36 53.99 86.27C53.67 86.27 53.36 86.27 53.04 86.27C52.96 86.17 52.93 86.06 52.97 85.94C52.91 86.3 53.06 86.66 53.44 86.77C53.76 86.86 54.2 86.66 54.27 86.3C54.33 85.92 54.26 85.59 53.99 85.31C53.76 85.07 53.27 85.03 53.04 85.31C52.78 85.64 52.59 85.97 52.45 86.36C52.88 86.48 53.31 86.6 53.74 86.72C53.83 86.34 53.94 86.04 54.14 85.71C54.32 85.4 54.21 84.97 53.89 84.79C53.58 84.6 53.16 84.71 52.97 85.03Z" fill="#727272" fill-opacity="1.000000" fill-rule="nonzero"/>
		<path id="Vector" d="M57.89 87.73C57.62 88.09 57.49 88.55 57.46 89C57.45 89.27 57.64 89.52 57.88 89.62C58.14 89.73 58.4 89.66 58.61 89.48C58.94 89.19 59.27 88.91 59.61 88.62C59.25 88.58 58.9 88.53 58.55 88.49C58.52 88.45 58.53 88.39 58.54 88.34C58.54 88.31 58.62 88.2 58.54 88.32C58.35 88.63 58.48 89.06 58.79 89.24C59.11 89.43 59.51 89.31 59.7 89C59.93 88.63 59.93 88.17 59.71 87.8C59.47 87.4 58.98 87.38 58.65 87.66C58.32 87.95 57.99 88.23 57.66 88.52C58.04 88.68 58.42 88.84 58.8 89C58.81 88.79 58.77 89.09 58.81 88.89C58.83 88.82 58.85 88.75 58.87 88.69C58.83 88.78 58.92 88.59 58.92 88.59C58.96 88.52 59 88.46 59.05 88.41C59.27 88.12 59.09 87.65 58.8 87.49C58.47 87.28 58.12 87.44 57.89 87.73Z" fill="#727272" fill-opacity="1.000000" fill-rule="nonzero"/>
		<path id="Vector" d="M60.38 78.87C60.28 79.39 60.23 79.91 60.22 80.43C60.22 81.1 61.15 81.37 61.48 80.78C61.68 80.41 61.92 80.09 62.22 79.79C61.94 79.83 61.67 79.86 61.4 79.89C61.39 79.88 61.37 79.87 61.35 79.86C61.3 79.76 61.24 79.66 61.18 79.56C61.17 79.52 61.21 79.4 61.17 79.54C61.14 79.63 61.12 79.78 61.11 79.86C61.1 80.08 61.17 80.29 61.29 80.47C61.44 80.66 61.67 80.79 61.92 80.79C62.05 80.79 62.21 80.75 62.33 80.69C62.35 80.67 62.37 80.66 62.39 80.65C62.5 80.58 62.47 80.58 62.3 80.64C62.18 80.61 62.07 80.57 61.96 80.55C61.78 80.46 61.76 80.35 61.78 80.22C61.73 80.58 61.87 80.95 62.25 81.06C62.57 81.14 63.03 80.95 63.08 80.58C63.13 80.2 63.12 79.8 62.82 79.51C62.67 79.37 62.45 79.28 62.24 79.29C62.11 79.29 61.95 79.33 61.83 79.4C61.8 79.42 61.66 79.48 61.74 79.46C61.86 79.46 61.98 79.46 62.1 79.46C62.08 79.46 62.06 79.45 62.04 79.44C62.14 79.5 62.24 79.56 62.34 79.62C62.38 79.99 62.42 80.09 62.46 79.9C62.48 79.86 62.49 79.81 62.5 79.76C62.52 79.66 62.53 79.55 62.52 79.44C62.5 79.15 62.35 78.86 62.08 78.73C61.81 78.6 61.48 78.61 61.26 78.83C60.89 79.21 60.57 79.63 60.31 80.09C60.73 80.21 61.15 80.32 61.57 80.43C61.57 80.03 61.61 79.63 61.68 79.24C61.74 78.87 61.58 78.51 61.21 78.4C60.87 78.31 60.44 78.51 60.38 78.87Z" fill="#727272" fill-opacity="1.000000" fill-rule="nonzero"/>
		<path id="Vector" d="M61.28 69.57C61.09 70.03 61.09 70.56 61.23 71.04C61.44 71.69 62.31 71.66 62.53 71.04C62.64 70.71 62.84 70.45 63.1 70.23C62.72 70.07 62.33 69.91 61.95 69.75C61.96 69.98 61.98 70.21 62 70.44C62.02 70.83 62.28 71.07 62.67 71.11C62.88 71.14 63.08 71.07 63.26 70.95C63.34 70.9 63.4 70.84 63.46 70.77C63.48 70.74 63.51 70.72 63.53 70.69C63.61 70.6 63.55 70.62 63.33 70.74C63.22 70.71 63.1 70.68 62.99 70.65C62.95 70.61 62.91 70.57 62.87 70.53C62.84 70.42 62.81 70.3 62.79 70.19C62.79 70.21 62.79 70.22 62.79 70.24C62.82 70.13 62.85 70.02 62.88 69.9C62.87 69.91 62.86 69.93 62.85 69.94C62.4 70.69 63.56 71.37 64.01 70.62C64.28 70.19 64.06 69.62 63.59 69.45C63.34 69.36 63.09 69.38 62.86 69.5C62.77 69.55 62.69 69.62 62.61 69.7C62.59 69.72 62.58 69.74 62.56 69.76C62.47 69.85 62.51 69.85 62.67 69.76C62.89 69.98 63.12 70.21 63.34 70.44C63.33 70.21 63.31 69.98 63.3 69.75C63.26 69.15 62.6 68.88 62.15 69.27C61.72 69.66 61.42 70.13 61.23 70.67C61.66 70.67 62.1 70.67 62.53 70.67C62.44 70.4 62.47 70.19 62.58 69.93C62.72 69.59 62.43 69.18 62.11 69.09C61.72 68.98 61.42 69.23 61.28 69.57Z" fill="#727272" fill-opacity="1.000000" fill-rule="nonzero"/>
		<path id="Vector" d="M60.72 57.71C60.76 58.09 60.8 58.47 60.83 58.85C60.87 59.19 61.06 59.48 61.42 59.52C61.74 59.56 62.07 59.36 62.16 59.03C62.23 58.75 62.33 58.48 62.47 58.23C62.09 58.23 61.7 58.23 61.31 58.23C61.38 58.35 61.44 58.48 61.51 58.6C61.75 59.07 62.41 59.01 62.67 58.6C62.69 58.56 62.72 58.53 62.72 58.52C62.79 58.46 62.74 58.46 62.58 58.53C62.51 58.57 62.44 58.58 62.37 58.57C62.29 58.49 62.21 58.41 62.13 58.33C62.12 58.31 62.12 58.29 62.11 58.27C62.37 59.1 63.67 58.75 63.41 57.91C63.27 57.49 62.91 57.22 62.46 57.24C62.02 57.25 61.72 57.57 61.5 57.92C61.89 57.92 62.28 57.92 62.66 57.92C62.6 57.79 62.53 57.66 62.47 57.54C62.23 57.1 61.54 57.1 61.31 57.54C61.11 57.9 60.96 58.28 60.86 58.67C61.3 58.73 61.74 58.79 62.18 58.85C62.14 58.47 62.1 58.09 62.07 57.71C62.03 57.35 61.79 57.04 61.4 57.04C61.06 57.04 60.69 57.35 60.72 57.71Z" fill="#727272" fill-opacity="1.000000" fill-rule="nonzero"/>
		<path id="Vector" d="M57.39 50.15C57.56 50.59 57.77 50.95 58.07 51.31C58.41 51.72 59.05 51.45 59.19 51.01C59.3 50.68 59.34 50.33 59.31 49.99C58.89 50.11 58.48 50.22 58.05 50.34C58.18 50.59 58.37 50.82 58.59 51C58.87 51.23 59.27 51.28 59.54 51C59.78 50.76 59.82 50.27 59.54 50.04C59.46 49.98 59.38 49.91 59.32 49.83C59.25 49.75 59.36 49.9 59.3 49.81C59.27 49.76 59.24 49.71 59.22 49.66C59.08 49.39 58.73 49.26 58.45 49.34C58.19 49.41 57.93 49.7 57.96 49.99C57.99 50.28 57.98 50.39 57.89 50.65C58.27 50.55 58.64 50.45 59.02 50.35C58.96 50.28 58.9 50.2 58.83 50.08C58.8 50.03 58.77 49.97 58.74 49.91C58.73 49.9 58.66 49.73 58.68 49.8C58.55 49.46 58.23 49.22 57.85 49.32C57.54 49.41 57.26 49.81 57.39 50.15Z" fill="#727272" fill-opacity="1.000000" fill-rule="nonzero"/>
		<path id="Vector" d="M64.18 49.63C64.24 49.91 64.35 50.19 64.49 50.44C64.65 50.7 64.96 50.83 65.25 50.75C65.56 50.67 65.72 50.4 65.74 50.1C65.78 49.78 65.81 49.46 65.84 49.15C65.5 49.34 65.17 49.53 64.83 49.73C65.03 49.89 65.24 50.04 65.44 50.2C65.74 50.41 66.2 50.25 66.36 49.95C66.57 49.61 66.41 49.25 66.12 49.03C65.91 48.88 65.71 48.72 65.5 48.57C65.31 48.43 65.01 48.45 64.83 48.57C64.61 48.7 64.52 48.9 64.49 49.15C64.46 49.47 64.43 49.79 64.4 50.1C64.82 49.99 65.23 49.88 65.65 49.76C65.55 49.58 65.52 49.49 65.48 49.27C65.41 48.91 64.98 48.71 64.65 48.8C64.28 48.9 64.12 49.27 64.18 49.63Z" fill="#727272" fill-opacity="1.000000" fill-rule="nonzero"/>
		<path id="Vector" d="M67.17 57.74C67.23 58.12 67.32 58.48 67.44 58.84C67.58 59.27 68.03 59.45 68.43 59.25C68.68 59.12 68.83 58.89 68.9 58.62C68.93 58.5 68.93 58.37 68.94 58.24C68.94 58.19 68.95 58.15 68.95 58.1C68.94 58.29 68.82 58.41 68.57 58.47C68.46 58.44 68.35 58.41 68.23 58.38C68.76 58.65 69.17 58.82 69.78 58.69C70.62 58.5 70.26 57.19 69.42 57.38C69.21 57.43 69.09 57.31 68.91 57.22C68.59 57.06 68.23 57.09 67.96 57.3C67.75 57.47 67.66 57.69 67.62 57.95C67.61 58.05 67.61 58.14 67.6 58.24C67.59 58.33 67.59 58.33 67.6 58.26C67.56 58.42 67.61 58.35 67.75 58.08C68.08 58.22 68.41 58.35 68.74 58.49C68.62 58.13 68.53 57.77 68.47 57.39C68.4 57.03 67.96 56.83 67.64 56.92C67.26 57.01 67.11 57.38 67.17 57.74Z" fill="#727272" fill-opacity="1.000000" fill-rule="nonzero"/>
		<path id="Vector" d="M68.74 67.53C68.69 67.87 68.64 68.21 68.6 68.56C68.56 68.86 68.62 69.15 68.91 69.32C69.14 69.46 69.54 69.44 69.72 69.21C69.82 69.08 69.92 68.97 70.08 68.92C69.79 68.7 69.51 68.49 69.22 68.27C69.23 68.54 69.24 68.81 69.25 69.08C69.26 69.53 69.66 69.84 70.1 69.73C70.31 69.68 70.49 69.57 70.66 69.44L70.83 69.31C70.82 69.29 70.6 69.3 70.55 69.25C70.49 69.15 70.43 69.05 70.38 68.95C70.39 68.97 70.39 69 70.4 69.02C70.68 69.84 71.98 69.48 71.69 68.66C71.54 68.21 71.18 67.96 70.7 67.97C70.51 67.98 70.31 68.04 70.14 68.14C70.01 68.22 69.88 68.39 69.73 68.42C70.01 68.64 70.3 68.86 70.58 69.08C70.57 68.81 70.57 68.54 70.56 68.27C70.55 67.85 70.13 67.47 69.71 67.61C69.34 67.74 69 67.94 68.76 68.26C69.14 68.48 69.51 68.7 69.89 68.92C69.93 68.57 69.98 68.23 70.03 67.89C70.08 67.53 69.94 67.16 69.56 67.05C69.25 66.97 68.78 67.16 68.74 67.53Z" fill="#727272" fill-opacity="1.000000" fill-rule="nonzero"/>
		<path id="Vector" d="M66.8 78.73C66.71 79.11 66.61 79.49 66.52 79.88C66.44 80.23 66.63 80.62 67 80.71C67.32 80.8 67.63 80.73 67.89 80.52C68.1 80.35 68.18 80.08 68.37 79.92C68.27 79.98 68.17 80.03 68.08 80.09C68.11 80.08 68.14 80.07 68.17 80.05C68.05 80.05 67.94 80.05 67.82 80.05C67.85 80.06 67.88 80.07 67.91 80.07C67.78 79.97 67.65 79.86 67.51 79.76C67.5 79.7 67.51 79.72 67.52 79.81C67.55 79.88 67.58 79.96 67.62 80.04C67.71 80.19 67.85 80.29 68 80.36C68.16 80.43 68.34 80.44 68.52 80.4C68.57 80.4 68.63 80.38 68.69 80.36C68.95 80.27 68.9 80.25 68.52 80.28C68.44 80.2 68.36 80.12 68.28 80.04C68.29 80.05 68.3 80.07 68.31 80.08C68.28 79.97 68.25 79.86 68.22 79.74C68.22 79.76 68.22 79.78 68.22 79.8C68.18 80.67 69.52 80.67 69.56 79.8C69.58 79.43 69.33 79.12 68.99 79.01C68.83 78.96 68.65 78.96 68.48 79C68.42 79.01 68.19 79.06 68.26 79.06C68.37 79.1 68.48 79.13 68.6 79.15C68.58 79.14 68.56 79.12 68.54 79.11C68.62 79.19 68.7 79.27 68.78 79.35C68.75 79.29 68.68 79.05 68.56 78.93C68.39 78.75 68.06 78.67 67.82 78.74C67.62 78.79 67.45 78.91 67.31 79.06C67.24 79.14 67.18 79.23 67.13 79.33C67.11 79.36 67.09 79.39 67.08 79.42C66.95 79.59 67.04 79.58 67.36 79.4C67.52 79.68 67.67 79.95 67.83 80.23C67.92 79.85 68.02 79.47 68.11 79.08C68.3 78.24 67.01 77.88 66.8 78.73Z" fill="#727272" fill-opacity="1.000000" fill-rule="nonzero"/>
		<path id="Vector" d="M65.38 86.86C65.48 86.94 65.57 87.01 65.67 87.09C65.96 87.31 66.43 87.13 66.59 86.85C66.79 86.5 66.64 86.14 66.35 85.92C66.25 85.84 66.15 85.77 66.05 85.69C65.77 85.47 65.3 85.65 65.13 85.93C64.93 86.28 65.09 86.63 65.38 86.86Z" fill="#727272" fill-opacity="1.000000" fill-rule="nonzero"/>
	</g>
	<rect id="Frame" width="61.000000" height="46.000000" transform="translate(16.000000 0.000000)" fill="#FFFFFF" fill-opacity="0"/>
	<g clip-path="url(#clip5_1599)">
		<path id="Vector" d="M35.29 44.73C35.85 40.1 32.62 36.64 29.18 33.97C27.17 32.42 25.21 31.12 23.9 28.89C23.23 27.75 22.59 26.46 22.22 25.2C21.49 22.73 22.75 18.85 25.87 21.7C27.67 23.34 28.09 25.45 29.46 27.28C30.24 28.31 31.43 28.86 32.67 28.2C36.4 26.23 33.51 19.38 32.68 16.66C31.67 13.37 31.14 10.2 32.84 7.03C33.4 5.99 34.02 4.92 34.74 3.98C35.2 3.37 35.79 2.72 36.46 2.3C37.83 1.43 38.65 1.43 40.17 1.89C41.78 2.39 41.8 2.47 42.13 4C42.28 4.71 42.34 5.48 42.38 6.21C42.45 7.76 42.33 9.31 42.01 10.83C41.41 13.7 39.68 16.25 39.3 19.17C39.02 21.31 39.22 28.14 42.81 27.5C47.01 26.75 46.71 20.09 50.91 19.2C54.4 18.46 56.1 22.24 54.62 24.84C53.82 26.25 52.48 27.34 51.2 28.31C48.91 30.03 46.11 30.93 43.86 32.66C39.79 35.82 41.14 40.78 42.81 44.85C43.14 45.63 44.44 45.29 44.11 44.49C42.99 41.75 41.57 38.39 43.1 35.51C44.51 32.85 48.23 31.91 50.63 30.34C53.88 28.21 58.54 24.21 55.79 20C53.49 16.48 49.03 17.66 46.93 20.61C46.3 21.5 45.81 22.48 45.24 23.42C44.98 23.85 44.73 24.28 44.43 24.68C44.21 24.94 43.99 25.19 43.78 25.45C42.07 25.82 41.18 25.37 41.12 24.09C39.41 20.5 41.49 16.82 42.65 13.51C43.51 11.05 43.88 8.42 43.7 5.82C43.57 4.02 43.38 1.59 41.67 0.51C40.16 -0.44 37.83 0.11 36.35 0.84C34.14 1.95 32.79 4.28 31.67 6.37C28.8 11.71 31.7 16.42 32.76 21.8C32.9 22.51 33.26 24.08 33.02 24.88C32.29 25.54 31.56 26.19 30.83 26.85C30.41 26.32 30.09 25.74 29.87 25.11C29.45 24.18 29 23.31 28.38 22.48C27.41 21.18 25.57 19.03 23.69 19.14C21.86 19.24 20.79 21.15 20.59 22.73C20.31 25.08 21.58 27.58 22.74 29.57C25.94 35.09 34.86 37.12 33.94 44.74C33.84 45.58 35.2 45.58 35.29 44.73Z" fill="#46A358" fill-opacity="1.000000" fill-rule="nonzero"/>
		<path id="Vector" d="M46.98 22.57C47.96 17.7 46.12 13.25 45.73 8.45C45.5 5.57 46.74 0.98 50.68 2.29C53.62 3.26 54.73 6.71 54.53 9.47C54.39 11.49 53.41 17.41 57.35 16.86C60.73 16.39 62.48 10.83 64.12 8.48C65.52 6.46 68.63 3.51 71.36 4.33C75.69 5.64 72.92 10.76 70.93 12.77C67.57 16.16 63.99 19.16 61.02 22.94C59.31 25.13 57.82 28.73 61.63 29.72C63.09 30.09 64.5 29.59 65.83 29C66.89 28.52 67.9 27.94 69.04 27.63C71.1 27.05 73.5 27.5 72.13 30.03C68.93 35.96 61.61 31.59 56.89 34.07C52.89 36.18 51.96 40.85 52.33 44.95C52.41 45.8 53.77 45.8 53.69 44.95C53.42 42.09 53.65 39.01 55.65 36.74C58.24 33.82 61.7 34.89 65.12 34.82C68.62 34.75 73.13 33.08 73.85 29.23C74.65 25 69.77 25.82 67.26 26.84C66.16 27.29 65.13 27.99 63.97 28.32C63.06 28.58 61.61 28.72 60.89 27.87C60.19 27.04 60.75 25.65 61.19 24.95C62.77 22.37 65.19 20.02 67.35 17.9C70.32 14.98 75.39 11.87 74.95 7.1C74.62 3.45 71.2 2.12 68.05 3.48C66.16 4.31 64.59 5.61 63.35 7.25C61.74 9.37 60.88 12.3 58.95 14.18C58.26 14.85 57.58 16.29 56.03 14.88C55.34 14.25 55.54 12.58 55.62 11.72C55.71 10.6 55.96 9.5 55.92 8.37C55.86 6.45 55.22 4.51 53.96 3.02C51.3 -0.11 46.73 0.03 44.96 3.96C43.91 6.3 44.37 8.99 44.81 11.42C45.46 15.02 46.41 18.55 45.68 22.21C45.51 23.05 46.82 23.41 46.98 22.57Z" fill="#46A358" fill-opacity="1.000000" fill-rule="nonzero"/>
		<path id="Vector" d="M46.68 31C46.04 35.58 45 40.07 43.55 44.47C43.28 45.29 44.59 45.64 44.85 44.83C46.31 40.43 47.35 35.94 47.98 31.36C48.1 30.51 46.8 30.15 46.68 31Z" fill="#46A358" fill-opacity="1.000000" fill-rule="nonzero"/>
		<path id="Vector" d="M30.5 43.97C30.33 40.44 27.84 38.06 24.98 36.24C23.13 35.06 21.1 34.08 19.51 32.55C18.82 31.89 17.55 30.61 17.48 29.59C17.25 26.18 21.47 28.84 22.41 29.62C23.07 30.18 24.03 29.24 23.37 28.68C21.89 27.44 19.25 25.83 17.22 26.76C15.59 27.51 15.86 29.37 16.49 30.72C19.12 36.42 28.8 37.07 29.15 43.97C29.19 44.82 30.55 44.83 30.5 43.97Z" fill="#46A358" fill-opacity="1.000000" fill-rule="nonzero"/>
		<path id="Vector" d="M60.83 45.29C62.52 42.78 64.74 40.73 67.47 39.35C69.95 38.1 73.02 37.88 75.22 36.11C77.74 34.07 77.87 29.08 73.7 29.21C72.83 29.24 72.83 30.57 73.7 30.54C75.34 30.77 76.01 31.66 75.71 33.23C75.37 34.13 74.8 34.85 73.99 35.36C73 36.05 71.8 36.37 70.67 36.72C69.22 37.18 67.81 37.65 66.47 38.36C63.68 39.85 61.41 42.03 59.66 44.62C59.18 45.33 60.35 46 60.83 45.29Z" fill="#46A358" fill-opacity="1.000000" fill-rule="nonzero"/>
		<path id="Vector" d="M64.51 33.56C58.78 34.62 56.66 40.25 55.31 45.17C55.08 46 56.38 46.35 56.61 45.52C57.84 41.05 59.63 35.82 64.87 34.85C65.72 34.68 65.36 33.4 64.51 33.56Z" fill="#46A358" fill-opacity="1.000000" fill-rule="nonzero"/>
		<path id="Vector" d="M34.29 13.26C33.62 10.6 34.46 7.68 36.63 5.89C37.07 5.52 37.56 5.23 38.11 5.03C39.61 5.34 40.31 6.13 40.2 7.4C40.23 8.14 40.09 8.87 39.91 9.58C39.56 11.01 38.93 12.38 38.46 13.78C37.27 17.4 35.55 23.32 38.78 26.4C39.09 26.7 39.57 26.23 39.26 25.93C36.43 23.23 37.88 18.04 38.85 14.81C39.69 12.01 41.96 8.29 40.43 5.35C39.23 3.05 36.48 4.92 35.31 6.26C33.58 8.25 33 10.92 33.63 13.44C33.74 13.86 34.39 13.68 34.29 13.26Z" fill="#46A358" fill-opacity="1.000000" fill-rule="nonzero"/>
		<path id="Vector" d="M48.58 24.06C48.97 23.21 49.76 22.01 50.81 21.87C52.41 21.65 53.23 23.63 52.37 24.94C51.57 26.18 50.03 27.04 48.7 27.57C46.5 28.44 45.02 29.65 43.42 31.38C43.13 31.7 43.6 32.17 43.9 31.85C44.87 30.8 45.86 29.71 47.12 28.98C48.13 28.4 49.3 28.17 50.31 27.6C51.54 26.9 53.53 25.4 53.67 23.88C53.79 22.65 52.48 21.23 51.25 21.15C49.77 21.06 48.54 22.55 48 23.72C47.82 24.11 48.41 24.45 48.58 24.06Z" fill="#46A358" fill-opacity="1.000000" fill-rule="nonzero"/>
		<path id="Vector" d="M23.3 24.83C23.44 23.66 23.89 23.23 24.63 23.55C24.89 23.55 25.11 23.64 25.29 23.83C25.64 24.06 25.88 24.4 26.09 24.76C26.47 25.4 26.65 26.16 26.93 26.84C27.28 27.72 27.75 28.44 28.56 28.96C28.92 29.2 29.26 28.62 28.9 28.38C26.92 27.08 27.47 23.72 24.99 22.9C23.5 22.41 22.01 23.68 22.71 25.16C22.9 25.56 23.48 25.22 23.3 24.83Z" fill="#46A358" fill-opacity="1.000000" fill-rule="nonzero"/>
		<path id="Vector" d="M47.53 7.58C47.18 5.66 49.23 4.13 50.8 5.53C51.66 6.3 52 7.73 52 8.84C52.01 10.34 51.31 11.69 51.61 13.2C51.69 13.62 52.34 13.45 52.26 13.02C51.89 11.13 52.96 9.31 52.48 7.34C52.19 6.16 51.6 4.85 50.37 4.4C48.14 3.61 46.5 5.73 46.87 7.75C46.96 8.17 47.6 8 47.53 7.58Z" fill="#46A358" fill-opacity="1.000000" fill-rule="nonzero"/>
		<path id="Vector" d="M47.19 11.98C48.29 14.26 48.83 16.26 48.75 18.79C48.74 19.22 49.41 19.21 49.43 18.79C49.51 16.13 48.93 14.02 47.78 11.64C47.59 11.26 47 11.59 47.19 11.98Z" fill="#46A358" fill-opacity="1.000000" fill-rule="nonzero"/>
		<path id="Vector" d="M64.73 10.07C65.38 8.6 66.62 7.67 68.05 6.97C68.46 6.76 68.88 6.58 69.32 6.44C71.23 7.09 71.71 7.97 70.77 9.11C70.32 9.81 69.67 10.43 69.1 11.05C66.96 13.38 64.64 15.54 62.19 17.56C61.86 17.83 62.34 18.31 62.67 18.03C64.88 16.21 66.99 14.27 68.96 12.19C70.14 10.94 72.4 9.09 71.91 7.11C70.92 3.2 64.97 7.86 64.14 9.73C63.97 10.12 64.56 10.46 64.73 10.07Z" fill="#46A358" fill-opacity="1.000000" fill-rule="nonzero"/>
		<path id="Vector" d="M60.91 19.98C58.75 21.55 57.44 23.83 57.19 26.45C57.15 26.88 57.83 26.88 57.87 26.45C58.09 24.08 59.3 21.97 61.25 20.55C61.6 20.31 61.26 19.72 60.91 19.98Z" fill="#46A358" fill-opacity="1.000000" fill-rule="nonzero"/>
		<path id="Vector" d="M65.19 31.1C65.63 30.84 66.07 30.57 66.54 30.34C66.89 30.15 67.26 30 67.65 29.9C68.37 29.6 68.62 30.16 68.37 31.57C67.9 32.49 65.31 32.53 64.5 32.48C62.5 32.37 60.61 31.82 58.63 32.42C58.21 32.55 58.39 33.19 58.81 33.07C61.19 32.34 63.5 33.4 65.9 33.13C67.2 32.99 69.05 32.4 69.69 31.15C70.06 30.46 69.97 29.54 69.18 29.16C67.89 28.55 65.87 29.92 64.85 30.53C64.48 30.75 64.82 31.33 65.19 31.1Z" fill="#46A358" fill-opacity="1.000000" fill-rule="nonzero"/>
		<path id="Vector" d="M55.13 33.58C51.62 36.4 50.34 40.66 49.98 44.97C49.94 45.39 50.62 45.39 50.66 44.97C51 40.83 52.23 36.76 55.61 34.05C55.95 33.78 55.47 33.32 55.13 33.58Z" fill="#46A358" fill-opacity="1.000000" fill-rule="nonzero"/>
		<path id="Vector" d="M40 34.72C38.95 36.5 38.98 38.45 39.21 40.45C39.41 42.13 39.63 43.78 40.8 45.09C41.09 45.41 41.57 44.94 41.28 44.62C40.13 43.34 39.98 41.56 39.83 39.92C39.67 38.22 39.69 36.57 40.58 35.05C40.8 34.68 40.22 34.35 40 34.72Z" fill="#46A358" fill-opacity="1.000000" fill-rule="nonzero"/>
		<path id="Vector" d="M21.34 30.33C19.38 30.35 20.16 32.38 21.2 33.11C22.51 34.02 24 34.63 25.39 35.4C27.02 36.31 27.68 37.84 28.94 39.11C29.24 39.42 29.72 38.95 29.42 38.64C28.17 37.38 27.57 35.86 25.96 34.95C25.14 34.5 24.29 34.11 23.48 33.67C23.05 33.44 22.63 33.21 22.22 32.96C22.06 32.86 21.89 32.76 21.73 32.66C20.92 32.36 20.8 31.81 21.34 31C21.77 30.99 21.77 30.32 21.34 30.33Z" fill="#46A358" fill-opacity="1.000000" fill-rule="nonzero"/>
		<path id="Vector" d="M72.23 33.4C72.26 34.29 71.84 34.77 70.98 34.86C70.56 35.02 70.15 35.18 69.74 35.34C69.12 35.59 68.5 35.83 67.88 36.08C66.44 36.65 64.99 37.22 63.55 37.79C63.15 37.94 63.32 38.59 63.73 38.43C65.38 37.78 67.03 37.13 68.68 36.48C69.9 35.99 71.46 35.65 72.55 34.89C73.49 34.23 73.52 32.87 72.23 32.73C71.8 32.68 71.8 33.35 72.23 33.4Z" fill="#46A358" fill-opacity="1.000000" fill-rule="nonzero"/>
		<path id="Vector" d="M62 38.71C60.18 40.4 58.76 42.39 57.75 44.63C57.57 45.02 58.15 45.36 58.33 44.97C59.32 42.78 60.7 40.84 62.48 39.19C62.79 38.89 62.31 38.42 62 38.71Z" fill="#46A358" fill-opacity="1.000000" fill-rule="nonzero"/>
		<path id="Vector" d="M30.55 41.63C31.06 42.39 31.4 43.2 31.56 44.1C31.63 44.52 32.28 44.34 32.21 43.92C32.04 42.97 31.68 42.09 31.13 41.29C30.89 40.94 30.3 41.27 30.55 41.63Z" fill="#46A358" fill-opacity="1.000000" fill-rule="nonzero"/>
	</g>
</svg>
