<svg width="83.000000" height="90.000000" viewBox="0 0 83 90" fill="none" xmlns="http://www.w3.org/2000/svg" xmlns:xlink="http://www.w3.org/1999/xlink">
	<desc>
			Created with Pixso.
	</desc>
	<defs>
		<clipPath id="clip5_1646">
			<rect id="Frame" width="68.000000" height="49.000000" transform="translate(15.000000 38.000000)" fill="white" fill-opacity="0"/>
		</clipPath>
		<clipPath id="clip5_1676">
			<rect id="Frame" width="35.000000" height="39.000000" transform="translate(31.000000 0.000000)" fill="white" fill-opacity="0"/>
		</clipPath>
	</defs>
	<circle id="Ellipse 10" cx="37.000000" cy="53.000000" r="37.000000" fill="#46A358" fill-opacity="0.130000"/>
	<rect id="Frame" width="68.000000" height="49.000000" transform="translate(15.000000 38.000000)" fill="#FFFFFF" fill-opacity="0"/>
	<g clip-path="url(#clip5_1646)">
		<path id="Vector" d="M22.24 40.77C39.02 39.02 55.93 41.71 72.66 39.29C73.45 39.17 73.11 37.99 72.34 38.1C55.72 40.51 38.9 37.8 22.24 39.54C21.46 39.62 21.45 40.85 22.24 40.77Z" fill="#727272" fill-opacity="1.000000" fill-rule="nonzero"/>
		<path id="Vector" d="M22.08 39.57C20.44 40.08 20.65 42.21 21.52 43.34C22.94 45.19 26.14 45.23 28.22 45.03C29.01 44.96 29.01 43.73 28.22 43.8C26.87 43.93 25.47 43.92 24.16 43.53C23.48 43.33 22.76 43.05 22.37 42.41C22.17 42.08 21.78 40.95 22.41 40.76C23.17 40.52 22.84 39.33 22.08 39.57Z" fill="#727272" fill-opacity="1.000000" fill-rule="nonzero"/>
		<path id="Vector" d="M69.78 39.67C70.64 39.62 71.48 39.47 72.35 39.35C73.72 39.17 74.42 39.54 74.66 40.97C74.86 42.16 74.1 42.51 73.04 42.85C72.54 43.01 72.01 43.11 71.5 43.21C70.11 43.48 68.72 43.61 67.31 43.66C66.52 43.69 66.51 44.92 67.31 44.89C69.72 44.81 76.47 44.72 76.21 40.93C76.15 39.98 75.23 38.67 74.37 38.25C73.08 37.61 71.08 38.36 69.77 38.44C68.99 38.49 68.98 39.72 69.78 39.67Z" fill="#727272" fill-opacity="1.000000" fill-rule="nonzero"/>
		<path id="Vector" d="M24.05 44.77C23.88 47.37 20.92 48.84 19.35 50.62C18.11 52.03 17.14 53.65 16.44 55.37C14.93 59.07 14.64 63.21 15.41 67.1C16.99 75.09 23.05 81.68 30.63 84.51C31.37 84.79 31.69 83.6 30.96 83.33C23.09 80.39 16.98 73.02 16.29 64.57C15.97 60.56 16.82 56.38 19.07 53C20.94 50.2 25.05 48.41 25.28 44.77C25.33 43.98 24.1 43.98 24.05 44.77Z" fill="#727272" fill-opacity="1.000000" fill-rule="nonzero"/>
		<path id="Vector" d="M70.82 44.24C70.82 47.48 73.18 49.5 75.57 51.31C77.63 52.86 79.23 54.36 80.25 56.79C81.13 58.9 81.62 61.18 81.73 63.46C82.14 71.85 77.24 79.64 69.72 83.31C69 83.65 69.62 84.71 70.34 84.37C77.33 80.96 82.25 74.05 82.91 66.3C83.25 62.38 82.56 58.06 80.56 54.63C78.36 50.84 72.05 49.1 72.05 44.24C72.05 43.45 70.82 43.45 70.82 44.24Z" fill="#727272" fill-opacity="1.000000" fill-rule="nonzero"/>
		<path id="Vector" d="M30.26 83.61C29.46 85.38 30.9 86.9 32.67 86.98C34.6 87.08 36.64 86.63 38.57 86.55C40.81 86.45 43.06 86.45 45.3 86.48C53.67 86.61 62.03 87.24 70.36 86.11C70.64 86.07 70.79 85.76 70.81 85.52C70.88 84.83 70.82 84.32 70.62 83.67C70.39 82.92 69.2 83.24 69.43 84C69.64 84.5 69.69 85 69.58 85.52C69.73 85.32 69.88 85.12 70.03 84.92C63.54 85.8 56.98 85.58 50.45 85.38C47.28 85.28 44.11 85.19 40.94 85.24C39.49 85.27 38.05 85.32 36.6 85.42C35.81 85.48 35.02 85.55 34.24 85.63C33.66 85.68 30.44 86.18 31.32 84.22C31.65 83.51 30.59 82.89 30.26 83.61Z" fill="#727272" fill-opacity="1.000000" fill-rule="nonzero"/>
		<path id="Vector" d="M22.08 51.22C17.05 57.37 16.66 65.97 21.17 72.52C21.39 72.84 21.93 72.53 21.7 72.21C17.36 65.9 17.66 57.6 22.52 51.65C22.76 51.35 22.33 50.91 22.08 51.22Z" fill="#727272" fill-opacity="1.000000" fill-rule="nonzero"/>
		<path id="Vector" d="M22.41 74.8C22.81 75.38 23.27 75.92 23.79 76.4C24.07 76.67 24.51 76.25 24.22 75.97C23.75 75.52 23.32 75.03 22.94 74.49C22.72 74.17 22.18 74.47 22.41 74.8Z" fill="#727272" fill-opacity="1.000000" fill-rule="nonzero"/>
		<path id="Vector" d="M25.86 78.33C26.26 78.33 26.26 77.72 25.86 77.72C25.46 77.72 25.46 78.33 25.86 78.33Z" fill="#727272" fill-opacity="1.000000" fill-rule="nonzero"/>
		<path id="Vector" d="M69.62 44.28C69.31 45.46 69.04 46.64 69.5 47.82C69.93 48.92 70.81 49.9 71.55 50.81C73.34 52.97 76.99 55.15 77.17 58.17C77.19 58.56 77.8 58.57 77.78 58.17C77.66 55.91 75.98 54.47 74.45 53C73.45 52.05 72.52 51.05 71.67 49.98C71.09 49.25 70.44 48.49 70.11 47.61C69.7 46.55 69.93 45.51 70.22 44.45C70.32 44.06 69.72 43.9 69.62 44.28Z" fill="#727272" fill-opacity="1.000000" fill-rule="nonzero"/>
		<path id="Vector" d="M77.43 59.59C77.52 60.38 77.61 61.17 77.69 61.95C77.73 62.34 78.35 62.35 78.31 61.95C78.22 61.17 78.14 60.38 78.05 59.59C78.01 59.2 77.39 59.2 77.43 59.59Z" fill="#727272" fill-opacity="1.000000" fill-rule="nonzero"/>
		<path id="Vector" d="M77.49 63.57C77.54 63.8 77.5 64.02 77.41 64.23C77.35 64.38 77.48 64.57 77.63 64.61C77.8 64.66 77.94 64.54 78 64.39C78.13 64.07 78.15 63.74 78.08 63.41C78.01 63.02 77.42 63.18 77.49 63.57Z" fill="#727272" fill-opacity="1.000000" fill-rule="nonzero"/>
		<path id="Vector" d="M50.74 59.08C52.21 56.29 54.98 54.47 58.2 54.63C62.04 54.82 66.07 58.14 63.38 62.06C61.81 64.36 58.98 65.85 56.89 67.66C54.58 69.67 52.46 71.88 50.5 74.25C50 74.86 50.87 75.73 51.37 75.12C54.35 71.51 57.72 68.46 61.43 65.61C63.9 63.7 66.63 60.81 65.13 57.45C63.89 54.68 60.46 53.31 57.57 53.39C54.16 53.49 51.24 55.49 49.67 58.46C49.3 59.16 50.37 59.78 50.74 59.08Z" fill="#727272" fill-opacity="1.000000" fill-rule="nonzero"/>
		<path id="Vector" d="M50.45 58.12C47.81 55.17 44.52 52.13 40.25 52.35C37.08 52.51 34.35 54.9 33.89 58.05C33.33 61.89 36.21 65.26 39.02 67.48C42.46 70.21 47.66 71.16 50.24 74.86C50.69 75.51 51.76 74.89 51.31 74.24C49.7 71.93 47.36 70.75 44.87 69.55C41.72 68.03 38.6 66.15 36.57 63.22C34.3 59.95 34.68 54.96 39.07 53.77C43.37 52.6 46.99 56.1 49.57 58.99C50.1 59.59 50.97 58.71 50.45 58.12Z" fill="#727272" fill-opacity="1.000000" fill-rule="nonzero"/>
	</g>
	<rect id="Frame" width="35.000000" height="39.000000" transform="translate(31.000000 0.000000)" fill="#FFFFFF" fill-opacity="0"/>
	<g clip-path="url(#clip5_1676)">
		<path id="Vector" d="M46.47 12.62C45.28 14.78 43.46 16.5 41.14 17.39C40.23 17.75 39.03 17.73 39.15 16.48C39.22 15.71 40.06 15.03 40.67 14.67C41.71 14.05 43.04 13.85 44.15 13.37C44.87 13.05 44.25 12 43.53 12.31C41.54 13.17 39.36 13.37 38.23 15.46C37.62 16.58 37.42 18.13 38.79 18.77C40.26 19.46 42.3 18.35 43.52 17.56C45.22 16.48 46.56 15 47.53 13.24C47.92 12.55 46.85 11.93 46.47 12.62Z" fill="#46A358" fill-opacity="1.000000" fill-rule="nonzero"/>
		<path id="Vector" d="M43.89 12.11C42.39 12.28 40.91 12.29 39.42 12.01C38.88 11.91 38.34 11.77 37.82 11.6C37.37 11.47 36.94 11.31 36.52 11.12C35.89 10.33 35.95 9.89 36.71 9.79C38.94 8.09 42.43 9.88 44.62 10.7C45.36 10.98 45.68 9.8 44.94 9.52C43.04 8.8 40.95 7.72 38.86 7.95C37.66 8.08 34.89 8.6 34.57 10.1C33.83 13.56 42.1 13.54 43.89 13.34C44.67 13.25 44.68 12.03 43.89 12.11Z" fill="#46A358" fill-opacity="1.000000" fill-rule="nonzero"/>
		<path id="Vector" d="M45.35 9.55C43.48 8.07 41.81 5.78 41.9 3.3C41.95 2.19 42.65 1.72 43.68 2.22C44.24 2.49 44.63 3.19 44.94 3.72C45.66 4.95 45.96 6.36 46.22 7.74C46.37 8.51 47.56 8.18 47.41 7.41C47.01 5.35 46.45 3.2 44.91 1.66C44 0.75 42.49 -0.29 41.42 0.93C38.92 3.79 42.19 8.61 44.48 10.41C45.09 10.89 45.97 10.03 45.35 9.55Z" fill="#46A358" fill-opacity="1.000000" fill-rule="nonzero"/>
		<path id="Vector" d="M47.38 7.75C47.65 5.79 48.52 2.05 50.79 1.41C52.91 0.82 52.7 4.2 52.11 5.32C51.51 6.44 50.34 7.5 49.49 8.44C48.96 9.02 49.83 9.89 50.36 9.3C51.58 7.95 53.41 6.4 53.67 4.49C53.88 3.02 53.77 0.79 52.13 0.13C50.63 -0.46 49.15 0.89 48.3 1.96C47.04 3.52 46.46 5.46 46.19 7.42C46.08 8.2 47.27 8.53 47.38 7.75Z" fill="#46A358" fill-opacity="1.000000" fill-rule="nonzero"/>
		<path id="Vector" d="M50.45 9.46C51.88 8.27 54.55 7.44 56.3 8.51C58.57 9.91 55.36 10.74 54.3 10.81C53.16 10.89 52.02 10.82 50.9 10.69C50.11 10.6 50.12 11.82 50.9 11.91C52.74 12.13 55.23 12.4 56.94 11.49C58.01 10.93 58.78 9.57 58.12 8.42C57.39 7.14 55.33 6.83 53.99 6.87C52.33 6.92 50.84 7.55 49.58 8.6C48.97 9.1 49.84 9.97 50.45 9.46Z" fill="#46A358" fill-opacity="1.000000" fill-rule="nonzero"/>
		<path id="Vector" d="M50.58 11.87C51.85 12.34 53.11 13.04 53.84 14.22C54.74 15.71 54.76 18.44 52.13 17.93C49.82 17.48 48.14 15.04 47.67 12.93C47.5 12.16 46.31 12.48 46.48 13.25C46.9 15.14 47.95 16.8 49.52 17.95C50.75 18.86 52.92 19.95 54.37 18.92C55.87 17.86 55.87 15.66 55.19 14.15C54.39 12.38 52.7 11.34 50.92 10.69C50.16 10.42 49.84 11.6 50.58 11.87Z" fill="#46A358" fill-opacity="1.000000" fill-rule="nonzero"/>
		<path id="Vector" d="M38.1 15.24C34.5 17.4 31.84 19.79 31.21 24.11C30.52 28.79 31.62 33.69 32.62 38.25C32.79 39.02 33.98 38.7 33.81 37.93C32.92 33.89 32.02 29.71 32.29 25.55C32.59 21.02 34.96 18.54 38.72 16.3C39.4 15.89 38.78 14.83 38.1 15.24Z" fill="#46A358" fill-opacity="1.000000" fill-rule="nonzero"/>
		<path id="Vector" d="M54 13.86C59.04 14.25 62.61 18.26 63.96 22.86C65.44 27.86 64.61 33.13 63.81 38.17C63.69 38.94 64.88 39.27 65 38.5C65.94 32.58 66.88 26.3 64.46 20.6C62.62 16.29 58.81 13.01 54 12.64C53.21 12.58 53.21 13.8 54 13.86Z" fill="#46A358" fill-opacity="1.000000" fill-rule="nonzero"/>
		<path id="Vector" d="M39.32 17.78C33.29 22.13 35.25 31.95 36.47 38.06C36.62 38.83 37.81 38.51 37.66 37.74C37.02 34.54 36.43 31.3 36.49 28.03C36.55 24.85 37.15 20.84 39.94 18.83C40.58 18.37 39.97 17.31 39.32 17.78Z" fill="#46A358" fill-opacity="1.000000" fill-rule="nonzero"/>
		<path id="Vector" d="M46.09 13.82C43.85 17.24 42.4 21.07 41.87 25.12C41.6 27.25 41.58 29.4 41.83 31.53C42.11 33.85 42.86 36.09 43.14 38.41C43.23 39.18 44.47 39.19 44.37 38.41C43.89 34.35 42.64 30.62 42.97 26.47C43.31 22.16 44.79 18.06 47.16 14.44C47.59 13.78 46.52 13.17 46.09 13.82Z" fill="#46A358" fill-opacity="1.000000" fill-rule="nonzero"/>
		<path id="Vector" d="M49.1 17.6C50.94 20.61 51.33 24.02 51.65 27.45C51.98 31.03 52.26 34.61 52.49 38.2C52.53 38.98 53.77 38.98 53.72 38.2C53.46 34.14 53.17 30.08 52.75 26.04C52.42 22.86 51.86 19.75 50.17 16.98C49.76 16.31 48.69 16.93 49.1 17.6Z" fill="#46A358" fill-opacity="1.000000" fill-rule="nonzero"/>
		<path id="Vector" d="M54.72 18.17C59.31 23.9 59.47 31.22 59.3 38.2C59.29 38.99 60.52 38.99 60.54 38.2C60.71 30.84 60.41 23.32 55.59 17.31C55.1 16.69 54.23 17.57 54.72 18.17Z" fill="#46A358" fill-opacity="1.000000" fill-rule="nonzero"/>
		<path id="Vector" d="M46.95 19.67C46.88 19.94 46.81 20.21 46.74 20.48C46.65 20.87 47.24 21.03 47.34 20.64C47.41 20.37 47.47 20.1 47.54 19.83C47.64 19.45 47.05 19.29 46.95 19.67Z" fill="#46A358" fill-opacity="1.000000" fill-rule="nonzero"/>
		<path id="Vector" d="M48.28 21.79C48.28 22.1 48.28 22.4 48.28 22.71C48.28 23.1 48.9 23.1 48.9 22.71C48.9 22.4 48.9 22.1 48.9 21.79C48.9 21.4 48.28 21.4 48.28 21.79Z" fill="#46A358" fill-opacity="1.000000" fill-rule="nonzero"/>
		<path id="Vector" d="M45.3 23.73C45.27 24.17 45.23 24.61 45.2 25.05C45.17 25.44 45.79 25.44 45.82 25.05C45.85 24.61 45.89 24.17 45.92 23.73C45.95 23.34 45.33 23.34 45.3 23.73Z" fill="#46A358" fill-opacity="1.000000" fill-rule="nonzero"/>
		<path id="Vector" d="M49.31 25.87C49.31 26.28 49.31 26.68 49.31 27.09C49.31 27.49 49.93 27.49 49.93 27.09C49.93 26.68 49.93 26.28 49.93 25.87C49.93 25.47 49.31 25.47 49.31 25.87Z" fill="#46A358" fill-opacity="1.000000" fill-rule="nonzero"/>
		<path id="Vector" d="M46.94 28.11C46.94 28.55 46.94 29 46.94 29.44C46.94 29.83 47.56 29.83 47.56 29.44C47.56 29 47.56 28.55 47.56 28.11C47.56 27.72 46.94 27.72 46.94 28.11Z" fill="#46A358" fill-opacity="1.000000" fill-rule="nonzero"/>
		<path id="Vector" d="M45.61 32.6C45.61 33.21 45.61 33.82 45.61 34.43C45.61 34.83 46.22 34.83 46.22 34.43C46.22 33.82 46.22 33.21 46.22 32.6C46.22 32.2 45.61 32.2 45.61 32.6Z" fill="#46A358" fill-opacity="1.000000" fill-rule="nonzero"/>
		<path id="Vector" d="M43.78 28.6C43.85 29 43.92 29.41 43.99 29.82C44.06 30.21 44.65 30.04 44.59 29.66C44.52 29.25 44.44 28.84 44.37 28.43C44.3 28.05 43.71 28.21 43.78 28.6Z" fill="#46A358" fill-opacity="1.000000" fill-rule="nonzero"/>
		<path id="Vector" d="M48.5 34.64C48.53 35.04 48.56 35.45 48.6 35.86C48.63 36.25 49.25 36.25 49.21 35.86C49.18 35.45 49.15 35.04 49.11 34.64C49.08 34.24 48.46 34.24 48.5 34.64Z" fill="#46A358" fill-opacity="1.000000" fill-rule="nonzero"/>
		<path id="Vector" d="M50.34 30.05C50.38 30.46 50.41 30.86 50.44 31.27C50.48 31.66 51.09 31.66 51.06 31.27C51.03 30.86 50.99 30.46 50.96 30.05C50.93 29.66 50.31 29.65 50.34 30.05Z" fill="#46A358" fill-opacity="1.000000" fill-rule="nonzero"/>
		<path id="Vector" d="M57.43 16.4C57.9 16.81 58.38 17.22 58.86 17.63C59.16 17.88 59.59 17.45 59.29 17.2C58.82 16.78 58.34 16.37 57.86 15.96C57.57 15.71 57.13 16.14 57.43 16.4Z" fill="#46A358" fill-opacity="1.000000" fill-rule="nonzero"/>
		<path id="Vector" d="M57.69 19.8C57.95 20.28 58.22 20.76 58.49 21.24C58.68 21.58 59.22 21.27 59.03 20.93C58.76 20.45 58.49 19.97 58.22 19.49C58.02 19.15 57.49 19.46 57.69 19.8Z" fill="#46A358" fill-opacity="1.000000" fill-rule="nonzero"/>
		<path id="Vector" d="M60.16 20C60.46 20.41 60.77 20.82 61.07 21.23C61.3 21.55 61.84 21.24 61.61 20.92C61.3 20.51 61 20.1 60.69 19.69C60.46 19.38 59.92 19.68 60.16 20Z" fill="#46A358" fill-opacity="1.000000" fill-rule="nonzero"/>
		<path id="Vector" d="M61.68 25.33C61.78 26.05 61.89 26.76 61.99 27.48C62.05 27.86 62.64 27.7 62.59 27.31C62.49 26.6 62.38 25.88 62.28 25.17C62.21 24.78 61.62 24.95 61.68 25.33Z" fill="#46A358" fill-opacity="1.000000" fill-rule="nonzero"/>
		<path id="Vector" d="M59.61 23.5C59.71 23.84 59.81 24.18 59.91 24.52C60.03 24.9 60.62 24.74 60.51 24.36C60.41 24.02 60.31 23.68 60.2 23.34C60.09 22.97 59.49 23.12 59.61 23.5Z" fill="#46A358" fill-opacity="1.000000" fill-rule="nonzero"/>
		<path id="Vector" d="M62.88 31.17C62.92 31.65 62.91 32.14 62.84 32.62C62.77 33 63.37 33.17 63.43 32.78C63.52 32.25 63.55 31.71 63.5 31.17C63.46 30.78 62.84 30.78 62.88 31.17Z" fill="#46A358" fill-opacity="1.000000" fill-rule="nonzero"/>
		<path id="Vector" d="M61.45 33.11C61.45 33.48 61.45 33.85 61.45 34.23C61.45 34.62 62.06 34.62 62.06 34.23C62.06 33.85 62.06 33.48 62.06 33.11C62.06 32.71 61.45 32.71 61.45 33.11Z" fill="#46A358" fill-opacity="1.000000" fill-rule="nonzero"/>
		<path id="Vector" d="M62.08 22.89C62.25 23.3 62.42 23.7 62.59 24.11C62.66 24.27 62.8 24.37 62.97 24.32C63.12 24.29 63.25 24.1 63.19 23.95C63.02 23.54 62.84 23.13 62.68 22.72C62.61 22.57 62.47 22.46 62.3 22.51C62.15 22.55 62.02 22.74 62.08 22.89Z" fill="#46A358" fill-opacity="1.000000" fill-rule="nonzero"/>
		<path id="Vector" d="M60.93 29.95C60.93 30.18 60.93 30.42 60.93 30.66C60.93 31.06 61.55 31.06 61.55 30.66C61.55 30.42 61.55 30.18 61.55 29.95C61.55 29.55 60.93 29.55 60.93 29.95Z" fill="#46A358" fill-opacity="1.000000" fill-rule="nonzero"/>
		<path id="Vector" d="M62.17 36.78C62.15 37.07 62.08 37.34 61.97 37.61C61.91 37.77 62.04 37.95 62.19 37.99C62.36 38.04 62.5 37.93 62.56 37.78C62.7 37.45 62.76 37.12 62.78 36.78C62.81 36.38 62.19 36.39 62.17 36.78Z" fill="#46A358" fill-opacity="1.000000" fill-rule="nonzero"/>
		<path id="Vector" d="M36.29 18.88C36.08 19.18 35.87 19.48 35.65 19.78C35.43 20.11 35.96 20.42 36.19 20.09C36.4 19.79 36.61 19.49 36.82 19.19C37.04 18.86 36.51 18.56 36.29 18.88Z" fill="#46A358" fill-opacity="1.000000" fill-rule="nonzero"/>
		<path id="Vector" d="M34.52 23.34C34.45 23.71 34.37 24.08 34.29 24.46C34.22 24.84 34.81 25.01 34.89 24.62C34.97 24.25 35.04 23.88 35.12 23.5C35.2 23.12 34.6 22.96 34.52 23.34Z" fill="#46A358" fill-opacity="1.000000" fill-rule="nonzero"/>
		<path id="Vector" d="M34.33 21.12C34 21.55 33.76 22.02 33.59 22.53C33.47 22.9 34.07 23.06 34.19 22.69C34.34 22.23 34.57 21.82 34.86 21.43C35.1 21.11 34.56 20.81 34.33 21.12Z" fill="#46A358" fill-opacity="1.000000" fill-rule="nonzero"/>
		<path id="Vector" d="M33.07 25.18C33 25.68 32.92 26.19 32.85 26.7C32.79 27.08 33.39 27.25 33.44 26.86C33.52 26.35 33.59 25.85 33.67 25.34C33.73 24.95 33.13 24.78 33.07 25.18Z" fill="#46A358" fill-opacity="1.000000" fill-rule="nonzero"/>
		<path id="Vector" d="M33.69 28.11C33.64 28.62 33.67 29.12 33.77 29.62C33.84 30.01 34.44 29.85 34.36 29.46C34.28 29.01 34.26 28.56 34.31 28.11C34.34 27.72 33.73 27.72 33.69 28.11Z" fill="#46A358" fill-opacity="1.000000" fill-rule="nonzero"/>
		<path id="Vector" d="M34.2 31.99C34.23 32.29 34.27 32.6 34.3 32.9C34.31 33.07 34.43 33.21 34.61 33.21C34.76 33.21 34.94 33.07 34.92 32.9C34.88 32.6 34.85 32.29 34.81 31.99C34.8 31.82 34.69 31.68 34.5 31.68C34.35 31.68 34.18 31.82 34.2 31.99Z" fill="#46A358" fill-opacity="1.000000" fill-rule="nonzero"/>
		<path id="Vector" d="M33.2 34.29C33.43 34.67 33.61 35.08 33.71 35.52C33.81 35.91 34.4 35.75 34.31 35.36C34.19 34.87 33.99 34.41 33.73 33.98C33.52 33.64 32.99 33.95 33.2 34.29Z" fill="#46A358" fill-opacity="1.000000" fill-rule="nonzero"/>
		<path id="Vector" d="M34.51 36.86C34.58 37.03 34.65 37.2 34.72 37.37C34.78 37.52 34.92 37.63 35.1 37.58C35.24 37.54 35.38 37.36 35.31 37.21C35.24 37.03 35.17 36.87 35.1 36.7C35.04 36.54 34.9 36.43 34.73 36.48C34.58 36.52 34.45 36.7 34.51 36.86Z" fill="#46A358" fill-opacity="1.000000" fill-rule="nonzero"/>
	</g>
</svg>
