<svg width="90.000000" height="89.000000" viewBox="0 0 90 89" fill="none" xmlns="http://www.w3.org/2000/svg" xmlns:xlink="http://www.w3.org/1999/xlink">
	<desc>
			Created with Pixso.
	</desc>
	<defs>
		<clipPath id="clip5_1761">
			<rect id="Frame" width="44.000000" height="49.000000" transform="translate(31.000000 0.000000)" fill="white" fill-opacity="0"/>
		</clipPath>
		<clipPath id="clip5_1980">
			<rect id="Frame" width="83.000000" height="40.000000" transform="translate(7.000000 45.000000)" fill="white" fill-opacity="0"/>
		</clipPath>
	</defs>
	<circle id="Ellipse 11" cx="37.000000" cy="52.000000" r="37.000000" fill="#46A358" fill-opacity="0.130000"/>
	<rect id="Frame" width="44.000000" height="49.000000" transform="translate(31.000000 0.000000)" fill="#FFFFFF" fill-opacity="0"/>
	<g clip-path="url(#clip5_1761)">
		<path id="Vector" d="M51.3 44.02C51.32 44.51 51.45 44.96 51.71 45.38C51.93 45.74 52.5 45.39 52.28 45.04C52.08 44.72 51.97 44.38 51.96 44.01C51.94 43.59 51.28 43.6 51.3 44.02Z" fill="#46A358" fill-opacity="1.000000" fill-rule="nonzero"/>
		<path id="Vector" d="M59.8 43.98C59.77 44.16 59.73 44.34 59.7 44.53C59.67 44.7 59.76 44.88 59.94 44.92C60.11 44.97 60.31 44.86 60.34 44.69C60.38 44.51 60.41 44.33 60.45 44.14C60.48 43.97 60.39 43.79 60.21 43.74C60.04 43.7 59.84 43.81 59.8 43.98Z" fill="#46A358" fill-opacity="1.000000" fill-rule="nonzero"/>
		<path id="Vector" d="M64.34 44.63C64.76 44.62 64.75 43.97 64.32 43.98C63.89 43.99 63.91 44.64 64.34 44.63Z" fill="#46A358" fill-opacity="1.000000" fill-rule="nonzero"/>
		<path id="Vector" d="M39.48 45.79C39.9 45.78 39.89 45.12 39.46 45.13C39.04 45.14 39.05 45.8 39.48 45.79Z" fill="#46A358" fill-opacity="1.000000" fill-rule="nonzero"/>
		<path id="Vector" d="M51.58 4.38C49.03 11.83 47.64 19.63 47.48 27.5C47.41 31.46 47.64 35.42 48.19 39.34C48.44 41.14 48.76 42.94 49.14 44.73C49.44 46.12 49.6 47.71 50.64 48.78C51.09 49.23 51.78 48.52 51.33 48.07C50.2 46.92 50.09 44.49 49.8 42.99C49.43 41.09 49.14 39.18 48.92 37.26C48.52 33.62 48.38 29.95 48.51 26.3C48.77 18.91 50.15 11.62 52.55 4.62C52.75 4.03 51.79 3.79 51.58 4.38Z" fill="#46A358" fill-opacity="1.000000" fill-rule="nonzero"/>
		<path id="Vector" d="M55.44 4.52C56.77 11.96 56.81 19.57 57.07 27.1C57.2 30.64 57.41 34.19 57.34 37.73C57.27 41.41 56.54 44.87 55.56 48.4C55.4 49.01 56.36 49.25 56.53 48.64C57.44 45.34 58.17 42.07 58.31 38.63C58.47 34.79 58.21 30.92 58.07 27.08C57.8 19.46 57.74 11.77 56.39 4.24C56.28 3.62 55.32 3.9 55.44 4.52Z" fill="#46A358" fill-opacity="1.000000" fill-rule="nonzero"/>
		<path id="Vector" d="M62.62 17.31C63.08 27.49 63.49 37.8 60.97 47.77C60.82 48.39 61.78 48.63 61.94 48.02C64.47 37.96 64.08 27.56 63.62 17.29C63.59 16.65 62.59 16.67 62.62 17.31Z" fill="#46A358" fill-opacity="1.000000" fill-rule="nonzero"/>
		<path id="Vector" d="M59.82 17.46C58.41 19.08 57.47 20.97 57.06 23.08C56.94 23.7 57.9 23.94 58.02 23.32C58.4 21.38 59.23 19.64 60.53 18.14C60.95 17.66 60.23 16.97 59.82 17.46Z" fill="#46A358" fill-opacity="1.000000" fill-rule="nonzero"/>
		<path id="Vector" d="M69.6 23.71C69.58 31.09 68.58 38.39 66.62 45.51C66.45 46.12 67.41 46.36 67.58 45.75C69.56 38.55 70.57 31.15 70.59 23.69C70.59 23.06 69.6 23.08 69.6 23.71Z" fill="#46A358" fill-opacity="1.000000" fill-rule="nonzero"/>
		<path id="Vector" d="M67.71 21.52C65.15 24.46 63.88 28.08 62.98 31.81C62.83 32.42 63.79 32.66 63.94 32.05C64.81 28.5 65.98 25.01 68.43 22.2C68.85 21.72 68.13 21.04 67.71 21.52Z" fill="#46A358" fill-opacity="1.000000" fill-rule="nonzero"/>
		<path id="Vector" d="M43.75 10.41C45.52 14.53 46.8 18.79 47.6 23.19C47.71 23.82 48.66 23.53 48.55 22.91C47.75 18.51 46.47 14.25 44.7 10.13C44.45 9.56 43.5 9.83 43.75 10.41Z" fill="#46A358" fill-opacity="1.000000" fill-rule="nonzero"/>
		<path id="Vector" d="M41.91 10.77C41.39 17.01 40.88 23.34 41.93 29.56C43.04 36.05 45.74 42.39 47.82 48.62C48.02 49.22 48.98 48.94 48.78 48.34C46.76 42.29 44.16 36.15 42.99 29.88C41.82 23.57 42.37 17.1 42.9 10.75C42.96 10.12 41.96 10.14 41.91 10.77Z" fill="#46A358" fill-opacity="1.000000" fill-rule="nonzero"/>
		<path id="Vector" d="M35.59 25.86C38.9 28.91 41.59 32.47 43.6 36.48C43.89 37.05 44.73 36.53 44.45 35.97C42.4 31.89 39.65 28.25 36.28 25.15C35.81 24.72 35.13 25.43 35.59 25.86Z" fill="#46A358" fill-opacity="1.000000" fill-rule="nonzero"/>
		<path id="Vector" d="M33.32 27.12C35.88 34.69 39.34 41.93 43.62 48.7C43.96 49.24 44.81 48.73 44.47 48.19C40.23 41.49 36.81 34.33 34.27 26.84C34.07 26.24 33.12 26.52 33.32 27.12Z" fill="#46A358" fill-opacity="1.000000" fill-rule="nonzero"/>
		<path id="Vector" d="M39.06 46.76C37.6 44.17 35.46 42.02 32.79 40.66C32.25 40.38 31.73 40.45 32.78 40.34C33.16 40.31 33.56 40.29 33.94 40.3C35.19 40.31 36.33 40.53 37.4 41.2C38.65 41.98 39.75 43.1 40.86 44.05C41.35 44.46 42.04 43.76 41.55 43.34C40.14 42.13 38.73 40.62 37 39.87C36.03 39.45 34.98 39.32 33.92 39.32C33.26 39.32 31.87 39.19 31.31 39.76C30.21 40.85 32.31 41.49 32.96 41.88C35.19 43.18 36.96 45.05 38.22 47.28C38.53 47.82 39.37 47.31 39.06 46.76Z" fill="#46A358" fill-opacity="1.000000" fill-rule="nonzero"/>
		<path id="Vector" d="M69.28 38.79C70.25 36.65 72.5 35.98 74.64 35.54C74.96 35.47 75.08 35.06 74.93 34.81C73.76 32.99 71.64 32.8 69.65 32.98C69.02 33.04 69.03 34.02 69.67 33.96C71.28 33.82 73.11 33.81 74.08 35.32C74.17 35.08 74.27 34.84 74.36 34.6C71.97 35.09 69.48 35.94 68.41 38.31C68.15 38.88 69.01 39.36 69.28 38.79Z" fill="#46A358" fill-opacity="1.000000" fill-rule="nonzero"/>
		<path id="Vector" d="M35.43 24.91C34.99 25.48 34.5 26.19 33.78 26.42C33.06 26.64 32.3 26.32 32.35 25.47C32.39 24.8 32.97 24.31 33.54 24.03C34.19 23.71 35.99 23.55 35.51 24.8C35.29 25.39 36.25 25.62 36.48 25.04C36.94 23.84 35.83 22.79 34.66 22.77C33.43 22.74 31.99 23.55 31.53 24.71C31.1 25.78 31.55 27.11 32.76 27.42C34.23 27.79 35.34 26.63 36.14 25.59C36.53 25.09 35.81 24.41 35.43 24.91Z" fill="#46A358" fill-opacity="1.000000" fill-rule="nonzero"/>
		<path id="Vector" d="M43.99 9.68C43.37 9.79 42.48 10.19 41.86 9.86C41.24 9.53 41.35 8.71 41.71 8.24C42.08 7.74 42.67 7.56 43.27 7.73C43.75 7.86 45.26 9.11 44.21 9.54C43.62 9.78 43.9 10.73 44.49 10.48C45.73 9.97 45.69 8.55 44.89 7.64C44.09 6.72 42.65 6.37 41.57 7.04C40.63 7.63 40.11 8.91 40.62 9.94C41.34 11.4 43.03 10.85 44.28 10.62C44.9 10.5 44.61 9.56 43.99 9.68Z" fill="#46A358" fill-opacity="1.000000" fill-rule="nonzero"/>
		<path id="Vector" d="M55.79 3.69C54.93 3.91 53.92 4.17 53.04 3.95C51.79 3.66 51.74 2.25 52.62 1.51C53.32 0.93 54.4 0.86 55.25 1.12C55.78 1.28 56.41 1.62 56.56 2.21C56.7 2.75 56.43 3.29 55.87 3.43C55.25 3.58 55.54 4.52 56.16 4.37C57.64 4.01 57.96 2.19 57.05 1.11C56.02 -0.09 53.97 -0.3 52.59 0.37C51.29 1 50.5 2.68 51.36 3.97C52.36 5.47 54.62 5 56.07 4.62C56.69 4.47 56.41 3.53 55.79 3.69Z" fill="#46A358" fill-opacity="1.000000" fill-rule="nonzero"/>
		<path id="Vector" d="M62.87 13.34C61.44 13.08 59.88 13.49 59.23 14.89C58.7 16.02 59.2 17.49 60.43 17.92C61.67 18.35 63.55 17.82 64.24 16.68C64.9 15.58 64.42 14.19 63.38 13.54C62.84 13.2 62.36 14.06 62.9 14.39C63.57 14.81 63.79 15.76 63.24 16.38C62.75 16.92 61.71 17.15 61.01 17.03C60.1 16.87 59.75 15.93 60.2 15.16C60.7 14.31 61.72 14.13 62.62 14.29C63.25 14.4 63.49 13.45 62.87 13.34Z" fill="#46A358" fill-opacity="1.000000" fill-rule="nonzero"/>
		<path id="Vector" d="M70.56 18.76C69.31 18.68 67.57 18.86 67.29 20.37C67.06 21.62 68.49 23.26 69.59 23.7C72.71 24.96 73.38 18.68 70.69 18.85C70.05 18.89 70.07 19.87 70.71 19.83C71.58 19.77 71.37 21.82 71.17 22.23C70.7 23.19 69.81 22.84 69.22 22.23C68.77 21.75 67.95 20.91 68.42 20.23C68.88 19.58 69.89 19.7 70.58 19.74C71.22 19.79 71.19 18.8 70.56 18.76Z" fill="#46A358" fill-opacity="1.000000" fill-rule="nonzero"/>
		<path id="Vector" d="M52.63 6.17C52.53 6.5 52.43 6.83 52.33 7.16C52.21 7.57 52.85 7.73 52.97 7.32C53.07 6.99 53.18 6.66 53.27 6.33C53.4 5.93 52.76 5.77 52.63 6.17Z" fill="#46A358" fill-opacity="1.000000" fill-rule="nonzero"/>
		<path id="Vector" d="M54.05 6.23C54.05 6.45 54.06 6.66 54.06 6.88C54.07 7.3 54.73 7.29 54.72 6.87C54.72 6.65 54.71 6.43 54.71 6.21C54.7 5.79 54.04 5.81 54.05 6.23Z" fill="#46A358" fill-opacity="1.000000" fill-rule="nonzero"/>
		<path id="Vector" d="M53.58 10.16C54 10.15 53.99 9.5 53.56 9.51C53.14 9.52 53.15 10.17 53.58 10.16Z" fill="#46A358" fill-opacity="1.000000" fill-rule="nonzero"/>
		<path id="Vector" d="M51.6 10.53C51.57 10.89 51.54 11.26 51.51 11.62C51.5 11.8 51.69 11.95 51.85 11.94C52.05 11.94 52.16 11.79 52.18 11.61C52.21 11.25 52.24 10.88 52.26 10.52C52.28 10.34 52.09 10.19 51.92 10.2C51.73 10.2 51.61 10.35 51.6 10.53Z" fill="#46A358" fill-opacity="1.000000" fill-rule="nonzero"/>
		<path id="Vector" d="M53.17 11.59C53.18 11.99 53.18 12.39 53.19 12.79C53.2 13.21 53.86 13.2 53.85 12.78C53.84 12.38 53.84 11.98 53.83 11.58C53.82 11.15 53.16 11.17 53.17 11.59Z" fill="#46A358" fill-opacity="1.000000" fill-rule="nonzero"/>
		<path id="Vector" d="M54.34 9.27C54.38 9.6 54.42 9.93 54.47 10.25C54.49 10.43 54.61 10.58 54.8 10.57C54.97 10.57 55.15 10.42 55.13 10.24C55.09 9.91 55.04 9.58 55 9.26C54.98 9.08 54.85 8.94 54.66 8.94C54.5 8.94 54.31 9.1 54.34 9.27Z" fill="#46A358" fill-opacity="1.000000" fill-rule="nonzero"/>
		<path id="Vector" d="M54.43 14.18C54.44 14.36 54.44 14.54 54.44 14.73C54.45 15.15 55.11 15.14 55.1 14.71C55.1 14.53 55.1 14.35 55.09 14.17C55.09 13.75 54.42 13.76 54.43 14.18Z" fill="#46A358" fill-opacity="1.000000" fill-rule="nonzero"/>
		<path id="Vector" d="M53 8.86C52.97 9.19 53.04 9.49 53.18 9.79C53.25 9.95 53.49 9.98 53.63 9.9C53.8 9.79 53.81 9.61 53.74 9.44C53.66 9.26 53.64 9.05 53.66 8.85C53.68 8.67 53.49 8.52 53.32 8.53C53.13 8.53 53.02 8.69 53 8.86Z" fill="#46A358" fill-opacity="1.000000" fill-rule="nonzero"/>
		<path id="Vector" d="M50.69 14.06C50.62 14.43 50.56 14.79 50.49 15.16C50.42 15.57 51.06 15.73 51.13 15.32C51.2 14.95 51.27 14.59 51.33 14.22C51.4 13.81 50.77 13.64 50.69 14.06Z" fill="#46A358" fill-opacity="1.000000" fill-rule="nonzero"/>
		<path id="Vector" d="M52.51 16.32C52.48 16.57 52.45 16.83 52.42 17.08C52.4 17.26 52.47 17.43 52.66 17.48C52.81 17.52 53.04 17.42 53.06 17.25C53.09 16.99 53.13 16.74 53.16 16.48C53.18 16.3 53.11 16.13 52.92 16.08C52.76 16.04 52.54 16.14 52.51 16.32Z" fill="#46A358" fill-opacity="1.000000" fill-rule="nonzero"/>
		<path id="Vector" d="M51.93 20.97C51.98 21.25 51.95 21.52 51.86 21.79C51.73 22.19 52.37 22.35 52.5 21.95C52.63 21.57 52.64 21.18 52.57 20.79C52.53 20.61 52.31 20.52 52.16 20.57C51.97 20.62 51.89 20.8 51.93 20.97Z" fill="#46A358" fill-opacity="1.000000" fill-rule="nonzero"/>
		<path id="Vector" d="M49.91 18.33C49.88 18.59 49.85 18.84 49.82 19.1C49.8 19.28 49.87 19.45 50.05 19.5C50.21 19.54 50.44 19.44 50.46 19.26C50.49 19.01 50.52 18.75 50.55 18.5C50.57 18.32 50.5 18.15 50.31 18.1C50.15 18.06 49.93 18.16 49.91 18.33Z" fill="#46A358" fill-opacity="1.000000" fill-rule="nonzero"/>
		<path id="Vector" d="M54.42 18.85C54.5 19.22 54.57 19.58 54.65 19.94C54.74 20.35 55.38 20.16 55.29 19.75C55.21 19.39 55.13 19.03 55.05 18.67C54.96 18.25 54.33 18.44 54.42 18.85Z" fill="#46A358" fill-opacity="1.000000" fill-rule="nonzero"/>
		<path id="Vector" d="M54.85 23.66C54.86 24.03 54.87 24.39 54.87 24.75C54.88 25.17 55.55 25.16 55.54 24.74C55.53 24.38 55.52 24.01 55.51 23.65C55.51 23.23 54.84 23.24 54.85 23.66Z" fill="#46A358" fill-opacity="1.000000" fill-rule="nonzero"/>
		<path id="Vector" d="M54.07 28.46C54.11 28.71 54.15 28.97 54.19 29.22C54.22 29.39 54.45 29.49 54.61 29.44C54.79 29.38 54.86 29.21 54.83 29.03C54.78 28.78 54.74 28.53 54.7 28.27C54.67 28.1 54.45 28.01 54.29 28.05C54.1 28.11 54.04 28.28 54.07 28.46Z" fill="#46A358" fill-opacity="1.000000" fill-rule="nonzero"/>
		<path id="Vector" d="M51.37 26.02C51.37 26.24 51.38 26.46 51.38 26.68C51.39 27.1 52.05 27.09 52.04 26.67C52.04 26.45 52.03 26.23 52.03 26.01C52.02 25.59 51.36 25.6 51.37 26.02Z" fill="#46A358" fill-opacity="1.000000" fill-rule="nonzero"/>
		<path id="Vector" d="M49.54 23.22C49.57 23.5 49.54 23.75 49.46 24.01C49.34 24.42 49.98 24.58 50.1 24.17C50.2 23.86 50.23 23.53 50.21 23.21C50.17 22.8 49.51 22.81 49.54 23.22Z" fill="#46A358" fill-opacity="1.000000" fill-rule="nonzero"/>
		<path id="Vector" d="M50.38 30.76C50.34 31.01 50.31 31.27 50.28 31.52C50.26 31.7 50.33 31.87 50.52 31.92C50.67 31.96 50.9 31.86 50.92 31.68C50.95 31.43 50.98 31.17 51.02 30.92C51.04 30.74 50.97 30.57 50.78 30.52C50.62 30.48 50.4 30.58 50.38 30.76Z" fill="#46A358" fill-opacity="1.000000" fill-rule="nonzero"/>
		<path id="Vector" d="M53.75 34.46C53.79 34.68 53.83 34.9 53.88 35.11C53.91 35.29 54.13 35.38 54.29 35.33C54.47 35.28 54.54 35.1 54.51 34.93C54.47 34.71 54.43 34.49 54.38 34.28C54.35 34.1 54.13 34.01 53.97 34.06C53.79 34.11 53.72 34.29 53.75 34.46Z" fill="#46A358" fill-opacity="1.000000" fill-rule="nonzero"/>
		<path id="Vector" d="M51.96 38.21C52.04 38.57 52.12 38.93 52.2 39.29C52.3 39.71 52.93 39.52 52.84 39.11C52.76 38.74 52.68 38.38 52.6 38.02C52.5 37.61 51.87 37.8 51.96 38.21Z" fill="#46A358" fill-opacity="1.000000" fill-rule="nonzero"/>
		<path id="Vector" d="M55.65 40.58C55.58 40.83 55.52 41.09 55.45 41.35C55.34 41.75 55.98 41.91 56.09 41.51C56.16 41.25 56.23 41 56.3 40.74C56.41 40.33 55.76 40.17 55.65 40.58Z" fill="#46A358" fill-opacity="1.000000" fill-rule="nonzero"/>
		<path id="Vector" d="M55.16 12.18C55.2 12.44 55.25 12.69 55.29 12.94C55.32 13.12 55.55 13.21 55.7 13.16C55.89 13.11 55.95 12.93 55.92 12.76C55.88 12.5 55.84 12.25 55.79 12C55.76 11.82 55.54 11.73 55.38 11.78C55.2 11.83 55.13 12.01 55.16 12.18Z" fill="#46A358" fill-opacity="1.000000" fill-rule="nonzero"/>
		<path id="Vector" d="M55.24 16.67C55.29 17 55.33 17.33 55.38 17.65C55.41 17.83 55.52 17.98 55.72 17.97C55.88 17.97 56.06 17.82 56.04 17.64C56 17.31 55.95 16.99 55.9 16.66C55.88 16.49 55.76 16.34 55.56 16.34C55.4 16.34 55.21 16.5 55.24 16.67Z" fill="#46A358" fill-opacity="1.000000" fill-rule="nonzero"/>
		<path id="Vector" d="M60.2 20.31C60.12 20.82 60.02 21.33 59.93 21.84C59.86 22.26 60.5 22.42 60.58 22C60.66 21.49 60.76 20.98 60.85 20.47C60.92 20.05 60.28 19.89 60.2 20.31Z" fill="#46A358" fill-opacity="1.000000" fill-rule="nonzero"/>
		<path id="Vector" d="M61.49 19.38C61.5 19.64 61.5 19.89 61.51 20.15C61.52 20.57 62.18 20.55 62.17 20.13C62.16 19.88 62.16 19.62 62.15 19.37C62.14 18.95 61.49 18.96 61.49 19.38Z" fill="#46A358" fill-opacity="1.000000" fill-rule="nonzero"/>
		<path id="Vector" d="M61.13 22.88C61.07 23.43 61.01 23.97 60.95 24.52C60.9 24.94 61.56 24.92 61.61 24.51C61.67 23.96 61.73 23.41 61.79 22.87C61.84 22.45 61.18 22.47 61.13 22.88Z" fill="#46A358" fill-opacity="1.000000" fill-rule="nonzero"/>
		<path id="Vector" d="M59.42 23.84C59.27 24.13 59.14 24.43 58.99 24.72C58.81 25.1 59.39 25.42 59.57 25.04C59.72 24.74 59.85 24.45 60 24.16C60.18 23.78 59.6 23.46 59.42 23.84Z" fill="#46A358" fill-opacity="1.000000" fill-rule="nonzero"/>
		<path id="Vector" d="M58.42 22.09C58.33 22.31 58.25 22.53 58.17 22.75C58.1 22.92 58.25 23.11 58.4 23.15C58.59 23.2 58.74 23.08 58.81 22.92C58.89 22.69 58.98 22.47 59.06 22.25C59.13 22.09 58.98 21.9 58.82 21.85C58.64 21.8 58.49 21.92 58.42 22.09Z" fill="#46A358" fill-opacity="1.000000" fill-rule="nonzero"/>
		<path id="Vector" d="M60.31 26.39C60.3 26.68 60.29 26.97 60.27 27.26C60.26 27.68 60.92 27.67 60.94 27.25C60.95 26.96 60.96 26.67 60.97 26.37C60.99 25.95 60.33 25.97 60.31 26.39Z" fill="#46A358" fill-opacity="1.000000" fill-rule="nonzero"/>
		<path id="Vector" d="M61.67 28.11C61.65 28.38 61.64 28.65 61.63 28.92C61.62 29.1 61.8 29.25 61.97 29.24C62.15 29.24 62.28 29.09 62.29 28.91C62.3 28.64 62.32 28.36 62.33 28.09C62.34 27.92 62.16 27.77 61.99 27.77C61.8 27.78 61.68 27.93 61.67 28.11Z" fill="#46A358" fill-opacity="1.000000" fill-rule="nonzero"/>
		<path id="Vector" d="M61.14 31.03C61.11 31.27 61.08 31.5 61.05 31.74C61.03 31.91 61.11 32.09 61.29 32.14C61.45 32.18 61.67 32.08 61.69 31.9C61.72 31.67 61.76 31.43 61.79 31.19C61.81 31.02 61.73 30.84 61.55 30.79C61.39 30.75 61.17 30.85 61.14 31.03Z" fill="#46A358" fill-opacity="1.000000" fill-rule="nonzero"/>
		<path id="Vector" d="M58.68 29.01C58.64 29.21 58.61 29.41 58.58 29.61C58.55 29.78 58.63 29.96 58.81 30.01C58.98 30.05 59.19 29.95 59.22 29.77C59.25 29.57 59.28 29.37 59.32 29.17C59.35 29 59.26 28.82 59.08 28.77C58.92 28.73 58.71 28.83 58.68 29.01Z" fill="#46A358" fill-opacity="1.000000" fill-rule="nonzero"/>
		<path id="Vector" d="M59.15 34.21C59.16 34.35 59.16 34.5 59.16 34.65C59.17 35.07 59.83 35.05 59.82 34.63C59.82 34.49 59.82 34.34 59.81 34.2C59.8 33.78 59.14 33.79 59.15 34.21Z" fill="#46A358" fill-opacity="1.000000" fill-rule="nonzero"/>
		<path id="Vector" d="M61.29 36.13C61.29 36.27 61.3 36.42 61.3 36.57C61.31 36.99 61.97 36.97 61.96 36.55C61.96 36.41 61.96 36.26 61.95 36.12C61.94 35.7 61.28 35.71 61.29 36.13Z" fill="#46A358" fill-opacity="1.000000" fill-rule="nonzero"/>
		<path id="Vector" d="M59.38 40.1C59.41 40.35 59.38 40.59 59.3 40.83C59.25 41 59.38 41.19 59.54 41.23C59.72 41.27 59.88 41.16 59.94 40.99C60.04 40.7 60.08 40.39 60.05 40.09C60.03 39.91 59.9 39.76 59.71 39.77C59.54 39.77 59.36 39.92 59.38 40.1Z" fill="#46A358" fill-opacity="1.000000" fill-rule="nonzero"/>
		<path id="Vector" d="M60.2 18.65C60.12 18.81 60.03 18.98 59.94 19.14C59.74 19.52 60.32 19.84 60.52 19.46C60.61 19.29 60.69 19.13 60.78 18.96C60.98 18.59 60.4 18.27 60.2 18.65Z" fill="#46A358" fill-opacity="1.000000" fill-rule="nonzero"/>
		<path id="Vector" d="M43.04 12.43C43.09 12.77 43.16 13.12 43.22 13.46C43.25 13.63 43.47 13.73 43.63 13.68C43.82 13.62 43.88 13.45 43.85 13.28C43.79 12.93 43.73 12.58 43.67 12.24C43.64 12.07 43.41 11.98 43.26 12.02C43.07 12.08 43 12.25 43.04 12.43Z" fill="#46A358" fill-opacity="1.000000" fill-rule="nonzero"/>
		<path id="Vector" d="M44.02 14.59C44.17 14.95 44.33 15.31 44.48 15.67C44.55 15.84 44.71 15.95 44.89 15.89C45.05 15.85 45.18 15.65 45.11 15.49C44.96 15.13 44.81 14.76 44.65 14.4C44.58 14.24 44.43 14.13 44.24 14.18C44.09 14.23 43.95 14.43 44.02 14.59Z" fill="#46A358" fill-opacity="1.000000" fill-rule="nonzero"/>
		<path id="Vector" d="M43.12 15.8C43.04 16.3 43.05 16.78 43.14 17.28C43.21 17.69 43.84 17.51 43.77 17.09C43.71 16.72 43.71 16.33 43.76 15.96C43.82 15.55 43.18 15.38 43.12 15.8Z" fill="#46A358" fill-opacity="1.000000" fill-rule="nonzero"/>
		<path id="Vector" d="M44.38 17.69C44.49 18 44.6 18.31 44.71 18.61C44.85 19.01 45.49 18.83 45.35 18.43C45.23 18.12 45.12 17.81 45.01 17.5C44.87 17.11 44.23 17.29 44.38 17.69Z" fill="#46A358" fill-opacity="1.000000" fill-rule="nonzero"/>
		<path id="Vector" d="M42.84 19C42.84 19.36 42.85 19.72 42.86 20.09C42.87 20.51 43.53 20.5 43.52 20.07C43.51 19.71 43.5 19.35 43.5 18.98C43.49 18.56 42.83 18.57 42.84 19Z" fill="#46A358" fill-opacity="1.000000" fill-rule="nonzero"/>
		<path id="Vector" d="M44.08 20.23C44.08 20.55 44.09 20.88 44.1 21.21C44.11 21.63 44.77 21.62 44.76 21.2C44.75 20.87 44.75 20.54 44.74 20.21C44.73 19.79 44.07 19.81 44.08 20.23Z" fill="#46A358" fill-opacity="1.000000" fill-rule="nonzero"/>
		<path id="Vector" d="M45.93 20.87C46.06 21.25 46.2 21.63 46.33 22.01C46.47 22.41 47.1 22.23 46.96 21.83C46.83 21.45 46.7 21.07 46.56 20.69C46.42 20.29 45.79 20.48 45.93 20.87Z" fill="#46A358" fill-opacity="1.000000" fill-rule="nonzero"/>
		<path id="Vector" d="M46.65 24.13C46.69 24.33 46.74 24.53 46.77 24.73C46.81 24.91 47.03 25 47.19 24.95C47.37 24.9 47.44 24.72 47.41 24.55C47.37 24.35 47.32 24.15 47.28 23.95C47.25 23.77 47.03 23.68 46.87 23.73C46.69 23.78 46.62 23.96 46.65 24.13Z" fill="#46A358" fill-opacity="1.000000" fill-rule="nonzero"/>
		<path id="Vector" d="M44.84 24.17C44.94 24.48 45.02 24.79 45.06 25.11C45.08 25.29 45.21 25.44 45.4 25.44C45.56 25.43 45.74 25.28 45.72 25.1C45.68 24.72 45.6 24.35 45.47 23.98C45.33 23.59 44.69 23.77 44.84 24.17Z" fill="#46A358" fill-opacity="1.000000" fill-rule="nonzero"/>
		<path id="Vector" d="M43.14 22.86C43.14 23.12 43.15 23.37 43.15 23.63C43.16 24.05 43.83 24.04 43.82 23.61C43.81 23.36 43.81 23.1 43.8 22.85C43.79 22.43 43.13 22.44 43.14 22.86Z" fill="#46A358" fill-opacity="1.000000" fill-rule="nonzero"/>
		<path id="Vector" d="M43.94 26.77C43.96 27.1 44.02 27.42 44.13 27.73C44.28 28.12 44.91 27.94 44.77 27.54C44.68 27.29 44.62 27.03 44.6 26.76C44.57 26.34 43.91 26.35 43.94 26.77Z" fill="#46A358" fill-opacity="1.000000" fill-rule="nonzero"/>
		<path id="Vector" d="M45.38 29.56C45.44 29.76 45.5 29.96 45.56 30.15C45.68 30.56 46.32 30.37 46.2 29.97C46.14 29.77 46.08 29.57 46.02 29.37C45.9 28.97 45.27 29.15 45.38 29.56Z" fill="#46A358" fill-opacity="1.000000" fill-rule="nonzero"/>
		<path id="Vector" d="M46.16 27.03C46.2 27.18 46.24 27.32 46.28 27.47C46.39 27.87 47.03 27.69 46.92 27.28C46.88 27.14 46.84 26.99 46.8 26.85C46.69 26.44 46.05 26.63 46.16 27.03Z" fill="#46A358" fill-opacity="1.000000" fill-rule="nonzero"/>
		<path id="Vector" d="M44.29 32.47C44.37 32.8 44.45 33.12 44.53 33.45C44.63 33.86 45.27 33.67 45.17 33.26C45.08 32.94 45 32.61 44.92 32.29C44.82 31.88 44.18 32.06 44.29 32.47Z" fill="#46A358" fill-opacity="1.000000" fill-rule="nonzero"/>
		<path id="Vector" d="M45.93 37.24C45.99 37.38 46.05 37.52 46.11 37.67C46.17 37.83 46.33 37.94 46.52 37.89C46.68 37.84 46.8 37.65 46.74 37.48C46.68 37.34 46.62 37.19 46.56 37.05C46.5 36.89 46.33 36.78 46.15 36.83C45.99 36.88 45.86 37.07 45.93 37.24Z" fill="#46A358" fill-opacity="1.000000" fill-rule="nonzero"/>
		<path id="Vector" d="M67.48 23.68C67.3 24.03 67.12 24.38 66.95 24.73C66.75 25.1 67.33 25.42 67.53 25.04C67.7 24.69 67.88 24.35 68.05 24C68.25 23.62 67.67 23.3 67.48 23.68Z" fill="#46A358" fill-opacity="1.000000" fill-rule="nonzero"/>
		<path id="Vector" d="M68.4 24.5C68.32 24.83 68.23 25.16 68.15 25.49C68.05 25.9 68.69 26.06 68.79 25.65C68.88 25.32 68.96 24.99 69.04 24.66C69.15 24.25 68.51 24.09 68.4 24.5Z" fill="#46A358" fill-opacity="1.000000" fill-rule="nonzero"/>
		<path id="Vector" d="M67.59 27.63C67.51 27.9 67.42 28.18 67.34 28.45C67.21 28.86 67.86 29.02 67.98 28.61C68.06 28.34 68.14 28.06 68.23 27.79C68.35 27.39 67.71 27.23 67.59 27.63Z" fill="#46A358" fill-opacity="1.000000" fill-rule="nonzero"/>
		<path id="Vector" d="M67.03 26.3C66.96 26.43 66.89 26.56 66.82 26.69C66.62 27.06 67.19 27.38 67.4 27.01C67.47 26.88 67.54 26.75 67.61 26.62C67.82 26.25 67.24 25.93 67.03 26.3Z" fill="#46A358" fill-opacity="1.000000" fill-rule="nonzero"/>
		<path id="Vector" d="M68.67 26.46C68.64 26.71 68.61 26.97 68.58 27.23C68.56 27.4 68.63 27.58 68.82 27.62C68.97 27.66 69.2 27.57 69.22 27.39C69.25 27.13 69.28 26.88 69.31 26.62C69.33 26.45 69.26 26.27 69.07 26.22C68.91 26.18 68.69 26.28 68.67 26.46Z" fill="#46A358" fill-opacity="1.000000" fill-rule="nonzero"/>
		<path id="Vector" d="M65.55 28.16C65.48 28.37 65.38 28.56 65.27 28.74C65.03 29.09 65.61 29.41 65.84 29.06C66 28.83 66.11 28.58 66.19 28.32C66.24 28.15 66.12 27.96 65.95 27.92C65.77 27.88 65.6 27.99 65.55 28.16Z" fill="#46A358" fill-opacity="1.000000" fill-rule="nonzero"/>
		<path id="Vector" d="M65.53 30.97C65.39 31.2 65.32 31.47 65.33 31.74C65.35 32.16 66.01 32.15 65.99 31.73C65.99 31.56 66.02 31.43 66.11 31.29C66.33 30.93 65.75 30.61 65.53 30.97Z" fill="#46A358" fill-opacity="1.000000" fill-rule="nonzero"/>
		<path id="Vector" d="M67.25 30.25C67.19 30.47 67.12 30.69 67.06 30.91C66.94 31.32 67.58 31.48 67.7 31.07C67.77 30.85 67.83 30.63 67.9 30.41C68.02 30.01 67.37 29.85 67.25 30.25Z" fill="#46A358" fill-opacity="1.000000" fill-rule="nonzero"/>
		<path id="Vector" d="M66.71 33.48C66.64 33.72 66.57 33.95 66.5 34.19C66.39 34.6 67.03 34.76 67.14 34.35C67.21 34.11 67.28 33.88 67.35 33.64C67.47 33.24 66.82 33.07 66.71 33.48Z" fill="#46A358" fill-opacity="1.000000" fill-rule="nonzero"/>
		<path id="Vector" d="M68.81 28.83C68.79 28.98 68.78 29.12 68.76 29.27C68.74 29.45 68.94 29.59 69.1 29.59C69.3 29.59 69.4 29.43 69.42 29.26C69.44 29.11 69.45 28.97 69.47 28.82C69.49 28.64 69.29 28.49 69.13 28.5C68.93 28.5 68.83 28.65 68.81 28.83Z" fill="#46A358" fill-opacity="1.000000" fill-rule="nonzero"/>
		<path id="Vector" d="M64.65 35.37C64.62 35.49 64.58 35.59 64.55 35.71C64.42 36.11 65.06 36.27 65.19 35.87C65.22 35.75 65.26 35.65 65.29 35.54C65.42 35.13 64.78 34.98 64.65 35.37Z" fill="#46A358" fill-opacity="1.000000" fill-rule="nonzero"/>
		<path id="Vector" d="M64.12 38.72C64.05 38.9 63.97 39.08 63.9 39.27C63.84 39.43 63.98 39.62 64.14 39.66C64.33 39.71 64.48 39.59 64.55 39.43C64.62 39.25 64.69 39.06 64.76 38.88C64.82 38.72 64.68 38.52 64.52 38.48C64.33 38.43 64.18 38.55 64.12 38.72Z" fill="#46A358" fill-opacity="1.000000" fill-rule="nonzero"/>
		<path id="Vector" d="M66.72 37.38C66.72 37.49 66.72 37.6 66.73 37.71C66.74 38.13 67.4 38.12 67.39 37.7C67.39 37.59 67.39 37.48 67.38 37.37C67.37 36.95 66.71 36.96 66.72 37.38Z" fill="#46A358" fill-opacity="1.000000" fill-rule="nonzero"/>
		<path id="Vector" d="M65.49 41.72C65.47 41.87 65.46 42.01 65.44 42.16C65.42 42.33 65.62 42.48 65.78 42.48C65.98 42.47 66.08 42.32 66.1 42.14C66.12 42 66.13 41.85 66.15 41.71C66.17 41.53 65.97 41.38 65.81 41.38C65.62 41.39 65.51 41.54 65.49 41.72Z" fill="#46A358" fill-opacity="1.000000" fill-rule="nonzero"/>
		<path id="Vector" d="M35.25 28.08C35.31 28.26 35.37 28.44 35.43 28.62C35.55 29.02 36.19 28.83 36.06 28.43C36.01 28.25 35.95 28.07 35.89 27.89C35.76 27.49 35.13 27.67 35.25 28.08Z" fill="#46A358" fill-opacity="1.000000" fill-rule="nonzero"/>
		<path id="Vector" d="M35.94 27.33C36.16 27.6 36.38 27.88 36.6 28.14C36.72 28.28 36.96 28.25 37.07 28.13C37.21 27.99 37.17 27.81 37.06 27.67C36.84 27.4 36.61 27.13 36.39 26.86C36.28 26.72 36.04 26.75 35.93 26.87C35.79 27.01 35.82 27.2 35.94 27.33Z" fill="#46A358" fill-opacity="1.000000" fill-rule="nonzero"/>
		<path id="Vector" d="M37.21 29.64C37.4 29.9 37.59 30.17 37.78 30.44C38.02 30.78 38.59 30.44 38.35 30.1C38.15 29.83 37.96 29.56 37.77 29.3C37.52 28.95 36.96 29.29 37.21 29.64Z" fill="#46A358" fill-opacity="1.000000" fill-rule="nonzero"/>
		<path id="Vector" d="M36.39 30.42C36.55 30.67 36.7 30.92 36.85 31.17C37.07 31.53 37.63 31.19 37.42 30.83C37.26 30.58 37.11 30.33 36.96 30.08C36.74 29.72 36.17 30.06 36.39 30.42Z" fill="#46A358" fill-opacity="1.000000" fill-rule="nonzero"/>
		<path id="Vector" d="M37.88 33.12C38.07 33.46 38.26 33.8 38.45 34.14C38.66 34.5 39.23 34.16 39.02 33.8C38.83 33.46 38.63 33.12 38.44 32.78C38.23 32.41 37.67 32.75 37.88 33.12Z" fill="#46A358" fill-opacity="1.000000" fill-rule="nonzero"/>
		<path id="Vector" d="M38.46 32.13C38.59 32.32 38.73 32.52 38.86 32.72C39.09 33.07 39.66 32.73 39.42 32.38C39.29 32.18 39.16 31.98 39.03 31.79C38.79 31.44 38.22 31.77 38.46 32.13Z" fill="#46A358" fill-opacity="1.000000" fill-rule="nonzero"/>
		<path id="Vector" d="M38.77 30.75C38.88 30.98 39.06 31.16 39.29 31.3C39.66 31.51 39.98 30.94 39.61 30.72C39.47 30.65 39.39 30.55 39.33 30.41C39.26 30.25 39.02 30.22 38.88 30.3C38.71 30.41 38.69 30.59 38.77 30.75Z" fill="#46A358" fill-opacity="1.000000" fill-rule="nonzero"/>
		<path id="Vector" d="M36.29 32.47C36.33 32.65 36.37 32.83 36.41 33.01C36.45 33.19 36.66 33.28 36.82 33.23C37.01 33.18 37.08 33 37.04 32.83C37 32.65 36.96 32.47 36.92 32.28C36.88 32.11 36.67 32.02 36.51 32.06C36.33 32.12 36.25 32.3 36.29 32.47Z" fill="#46A358" fill-opacity="1.000000" fill-rule="nonzero"/>
		<path id="Vector" d="M38.38 35.89C38.53 36.2 38.68 36.5 38.83 36.81C38.91 36.97 39.14 37 39.29 36.92C39.45 36.82 39.47 36.62 39.39 36.46C39.24 36.16 39.09 35.85 38.94 35.55C38.86 35.38 38.63 35.35 38.48 35.44C38.32 35.54 38.3 35.73 38.38 35.89Z" fill="#46A358" fill-opacity="1.000000" fill-rule="nonzero"/>
		<path id="Vector" d="M40.85 34.96C40.96 35.18 41.08 35.39 41.19 35.61C41.39 35.98 41.95 35.64 41.76 35.27C41.64 35.05 41.53 34.84 41.41 34.62C41.21 34.25 40.65 34.59 40.85 34.96Z" fill="#46A358" fill-opacity="1.000000" fill-rule="nonzero"/>
		<path id="Vector" d="M41.6 39.64C41.7 39.82 41.79 40 41.89 40.18C42.1 40.55 42.66 40.21 42.46 39.84C42.36 39.66 42.27 39.48 42.17 39.3C41.97 38.93 41.4 39.27 41.6 39.64Z" fill="#46A358" fill-opacity="1.000000" fill-rule="nonzero"/>
		<path id="Vector" d="M42.78 37.98C42.89 38.16 43.01 38.34 43.12 38.52C43.34 38.88 43.91 38.54 43.68 38.18C43.57 38 43.46 37.82 43.34 37.64C43.11 37.29 42.55 37.63 42.78 37.98Z" fill="#46A358" fill-opacity="1.000000" fill-rule="nonzero"/>
		<path id="Vector" d="M44.09 43.03C44.19 43.19 44.28 43.35 44.38 43.51C44.59 43.88 45.15 43.54 44.94 43.17C44.85 43.01 44.75 42.85 44.66 42.69C44.45 42.32 43.88 42.66 44.09 43.03Z" fill="#46A358" fill-opacity="1.000000" fill-rule="nonzero"/>
		<path id="Vector" d="M33.42 41.01C33.64 41.11 33.87 41.21 34.09 41.32C34.47 41.5 34.8 40.92 34.41 40.74C34.19 40.64 33.96 40.54 33.74 40.43C33.36 40.26 33.04 40.83 33.42 41.01Z" fill="#46A358" fill-opacity="1.000000" fill-rule="nonzero"/>
		<path id="Vector" d="M35.53 41.96C35.77 42.13 36.02 42.31 36.26 42.48C36.41 42.59 36.63 42.5 36.71 42.35C36.81 42.18 36.73 42.01 36.58 41.91C36.34 41.74 36.09 41.56 35.85 41.39C35.7 41.28 35.48 41.37 35.4 41.51C35.31 41.68 35.39 41.85 35.53 41.96Z" fill="#46A358" fill-opacity="1.000000" fill-rule="nonzero"/>
		<path id="Vector" d="M35.2 40.96C35.37 40.99 35.53 41.05 35.68 41.13C36.06 41.34 36.38 40.76 36 40.56C35.8 40.45 35.59 40.37 35.37 40.32C34.95 40.23 34.79 40.86 35.2 40.96Z" fill="#46A358" fill-opacity="1.000000" fill-rule="nonzero"/>
		<path id="Vector" d="M37.14 42.35C37.29 42.46 37.44 42.57 37.59 42.67C37.74 42.77 37.96 42.69 38.04 42.54C38.14 42.37 38.06 42.2 37.91 42.1C37.76 41.99 37.61 41.89 37.47 41.78C37.32 41.68 37.09 41.76 37.02 41.91C36.92 42.08 37 42.25 37.14 42.35Z" fill="#46A358" fill-opacity="1.000000" fill-rule="nonzero"/>
		<path id="Vector" d="M37.1 43.33C37.17 43.44 37.25 43.55 37.33 43.66C37.57 44 38.13 43.66 37.89 43.32C37.82 43.21 37.74 43.1 37.66 42.99C37.42 42.64 36.85 42.98 37.1 43.33Z" fill="#46A358" fill-opacity="1.000000" fill-rule="nonzero"/>
		<path id="Vector" d="M38.6 43.86C38.75 43.98 38.89 44.11 39.05 44.23C39.18 44.35 39.38 44.36 39.51 44.22C39.63 44.1 39.64 43.87 39.5 43.76C39.35 43.64 39.21 43.51 39.05 43.39C38.92 43.27 38.72 43.26 38.59 43.4C38.47 43.51 38.46 43.74 38.6 43.86Z" fill="#46A358" fill-opacity="1.000000" fill-rule="nonzero"/>
		<path id="Vector" d="M72.76 34.22C72.4 34.15 72.05 34.16 71.7 34.25C71.29 34.35 71.48 34.98 71.89 34.88C72.12 34.82 72.36 34.81 72.59 34.85C73.01 34.93 73.17 34.3 72.76 34.22Z" fill="#46A358" fill-opacity="1.000000" fill-rule="nonzero"/>
		<path id="Vector" d="M70.47 34.9C70.35 34.99 70.22 35.08 70.09 35.18C69.95 35.28 69.89 35.47 69.98 35.63C70.07 35.77 70.3 35.85 70.44 35.74C70.57 35.64 70.7 35.55 70.82 35.46C70.96 35.35 71.03 35.17 70.93 35.01C70.84 34.86 70.62 34.79 70.47 34.9Z" fill="#46A358" fill-opacity="1.000000" fill-rule="nonzero"/>
		<path id="Vector" d="M70.58 34.58C71.01 34.57 70.99 33.91 70.57 33.92C70.14 33.93 70.15 34.59 70.58 34.58Z" fill="#46A358" fill-opacity="1.000000" fill-rule="nonzero"/>
	</g>
	<rect id="Frame" width="83.000000" height="40.000000" transform="translate(7.000000 45.000000)" fill="#FFFFFF" fill-opacity="0"/>
	<g clip-path="url(#clip5_1980)">
		<path id="Vector" d="M37.38 47.61C35.04 53.63 33.39 59.91 32.85 66.37C32.39 71.88 32.53 77.83 35.55 82.65C35.9 83.2 36.75 82.67 36.41 82.11C33.38 77.29 33.38 71.23 33.91 65.72C34.5 59.58 36.12 53.59 38.35 47.86C38.58 47.26 37.61 47.01 37.38 47.61Z" fill="#727272" fill-opacity="1.000000" fill-rule="nonzero"/>
		<path id="Vector" d="M67.78 46.68C73.11 50.74 73.12 58.19 73.69 64.3C73.98 67.38 74.38 70.48 74.52 73.58C74.65 76.4 74.42 79.41 72.21 81.41C71.73 81.85 72.45 82.55 72.93 82.12C74.87 80.35 75.47 77.83 75.54 75.27C75.64 71.62 75.03 67.91 74.69 64.28C74.09 57.91 74.02 50.18 68.47 45.95C67.97 45.56 67.27 46.29 67.78 46.68Z" fill="#727272" fill-opacity="1.000000" fill-rule="nonzero"/>
		<path id="Vector" d="M35.75 82.85C38.58 83.88 41.47 84.14 44.44 84.39C47.73 84.67 51.04 85.1 54.35 84.98C57.7 84.86 61.07 84.38 64.41 84.01C67.32 83.69 70.22 83.28 72.94 82.1C73.52 81.85 73.25 80.87 72.65 81.13C69.83 82.35 66.84 82.73 63.81 83.06C60.66 83.39 57.49 83.85 54.33 83.96C51.23 84.07 48.12 83.69 45.03 83.43C41.95 83.17 38.93 82.94 36 81.87C35.39 81.64 35.15 82.63 35.75 82.85Z" fill="#727272" fill-opacity="1.000000" fill-rule="nonzero"/>
		<path id="Vector" d="M37.62 48.18C39.95 49.14 42.33 50 44.84 50.3C47.45 50.61 50.11 50.16 52.74 50.23C54.2 50.27 55.51 50.47 56.98 50.26C58.25 50.07 59.51 49.81 60.74 49.46C63.29 48.72 65.77 47.69 68.27 46.8C68.87 46.59 68.59 45.61 67.98 45.83C63.08 47.56 58.49 49.59 53.19 49.24C50.99 49.1 48.8 49.43 46.61 49.41C43.65 49.37 40.81 48.41 38.1 47.29C37.52 47.05 37.02 47.93 37.62 48.18Z" fill="#727272" fill-opacity="1.000000" fill-rule="nonzero"/>
		<path id="Vector" d="M7.66 51.24C13.26 52.13 18.47 54.82 22.38 59.01C26.16 63.07 28.28 68.42 32.4 72.19C32.88 72.62 33.58 71.89 33.1 71.46C28.73 67.46 26.55 61.68 22.34 57.53C18.41 53.64 13.32 51.11 7.91 50.25C7.27 50.15 7.02 51.13 7.66 51.24Z" fill="#727272" fill-opacity="1.000000" fill-rule="nonzero"/>
		<path id="Vector" d="M8.53 49.42C13.62 48.24 19.02 48.94 23.59 51.54C27.24 53.61 30.23 56.88 34.58 57.33C35.22 57.39 35.2 56.38 34.56 56.31C29.68 55.81 26.16 51.35 21.76 49.51C17.46 47.73 12.76 47.4 8.25 48.44C7.62 48.59 7.91 49.56 8.53 49.42Z" fill="#727272" fill-opacity="1.000000" fill-rule="nonzero"/>
		<path id="Vector" d="M7.72 48.74C7.34 49.27 7.09 49.9 7 50.55C6.96 50.83 7.08 51.09 7.37 51.17C7.6 51.23 7.94 51.07 7.97 50.8C8.05 50.22 8.25 49.71 8.59 49.23C8.75 49.01 8.61 48.66 8.4 48.54C8.14 48.39 7.88 48.52 7.72 48.74Z" fill="#727272" fill-opacity="1.000000" fill-rule="nonzero"/>
		<path id="Vector" d="M71.81 49.67C73.87 45.65 80.44 45.13 84.15 46.97C88.17 48.97 90.03 53.81 88.38 58.04C86.94 61.72 83.26 63.53 80.23 65.65C78.95 66.55 77.53 67.56 76.64 68.88C75.72 70.26 75.84 72.03 74.93 73.41C74.57 73.95 75.44 74.44 75.8 73.9C76.38 73.03 76.54 72.1 76.8 71.11C77.17 69.72 77.89 68.82 78.94 67.91C80.73 66.35 82.84 65.21 84.76 63.81C88.14 61.32 90.52 57.79 89.89 53.36C89.31 49.33 86.12 45.99 82.17 45.26C78.2 44.52 72.96 45.23 70.93 49.17C70.63 49.75 71.51 50.24 71.81 49.67Z" fill="#727272" fill-opacity="1.000000" fill-rule="nonzero"/>
		<path id="Vector" d="M72.82 52.22C74.2 49.42 77.36 48.69 80.22 48.92C82.12 49.07 83.3 49.83 84.3 51.49C85.4 53.32 85.35 54.88 84.73 56.83C83.75 59.9 81.98 61.32 79.26 62.76C77.48 63.7 74.76 64.93 74.05 67.02C73.84 67.64 74.81 67.88 75.02 67.27C75.67 65.37 78.84 64.14 80.48 63.26C81.89 62.5 83.22 61.67 84.18 60.33C85.69 58.22 86.94 54.77 85.84 52.27C84.5 49.21 82.45 47.85 79.17 47.88C76.26 47.9 73.32 48.95 71.95 51.73C71.66 52.31 72.53 52.8 72.82 52.22Z" fill="#727272" fill-opacity="1.000000" fill-rule="nonzero"/>
		<path id="Vector" d="M54.3 59.57C51.36 60.01 48.88 62.23 48.58 65.33C48.3 68.29 50.26 72.14 53.61 71.92C56.65 71.71 59.36 68.71 59.64 65.71C59.95 62.41 57.51 59.54 54.2 59.68C53.56 59.71 53.58 60.72 54.22 60.7C57.13 60.57 59.13 63.26 58.59 66.1C58.15 68.39 55.96 70.71 53.59 70.9C50.66 71.15 49.17 67.39 49.64 64.95C50.08 62.62 52.05 60.93 54.32 60.58C54.95 60.49 54.94 59.47 54.3 59.57Z" fill="#727272" fill-opacity="1.000000" fill-rule="nonzero"/>
		<path id="Vector" d="M54.88 60.01C54.7 57.86 58.03 54.58 59.7 57.08C60.22 57.85 60.72 59.22 60.5 60.17C60.27 61.19 59.29 61.95 58.54 62.58C58.04 62.99 58.77 63.69 59.26 63.28C60.44 62.29 61.66 61.11 61.55 59.42C61.46 58.04 60.7 56.22 59.52 55.46C56.98 53.84 53.67 57.56 53.88 60.03C53.93 60.68 54.93 60.66 54.88 60.01Z" fill="#727272" fill-opacity="1.000000" fill-rule="nonzero"/>
		<path id="Vector" d="M59.52 63.51C60.78 62.75 64.02 62.95 63.68 65.13C63.36 67.21 60.71 67.29 59.14 67.31C58.5 67.32 58.52 68.34 59.16 68.33C61.37 68.3 65.22 67.6 64.67 64.43C64.24 61.95 60.78 61.56 59 62.64C58.45 62.97 58.97 63.84 59.52 63.51Z" fill="#727272" fill-opacity="1.000000" fill-rule="nonzero"/>
		<path id="Vector" d="M58.52 68.51C60.27 69.3 62.24 71.63 60.58 73.51C58.63 75.71 55.8 73.54 55.08 71.42C54.87 70.8 53.91 71.08 54.12 71.71C55.06 74.45 58.42 76.82 61.02 74.49C63.54 72.23 61.53 68.76 59 67.62C58.42 67.36 57.93 68.25 58.52 68.51Z" fill="#727272" fill-opacity="1.000000" fill-rule="nonzero"/>
		<path id="Vector" d="M53.64 71.67C53.73 73.38 53.26 75.91 51 75.61C49.97 75.47 49.18 74.53 49.23 73.47C49.27 72.52 49.93 71.4 50.3 70.53C50.54 69.93 49.67 69.43 49.42 70.03C48.89 71.31 47.97 72.81 48.31 74.25C48.59 75.42 49.5 76.35 50.67 76.59C53.65 77.19 54.77 74.07 54.64 71.65C54.61 71 53.61 71.01 53.64 71.67Z" fill="#727272" fill-opacity="1.000000" fill-rule="nonzero"/>
		<path id="Vector" d="M50.16 69.27C48.3 70.05 45.42 69.85 44.77 67.48C44.48 66.43 44.8 65.2 45.77 64.64C46.7 64.09 47.91 64.23 48.93 64.36C49.56 64.44 49.82 63.45 49.18 63.37C47.77 63.2 46.16 63.05 44.94 63.97C43.93 64.73 43.52 66.07 43.72 67.31C44.22 70.5 47.9 71.3 50.44 70.24C51.04 69.99 50.76 69.02 50.16 69.27Z" fill="#727272" fill-opacity="1.000000" fill-rule="nonzero"/>
		<path id="Vector" d="M49.54 63.49C47.86 62.58 46.98 59.22 48.45 57.77C50.39 55.86 52.78 58.56 53.95 60.02C54.36 60.53 55.05 59.79 54.65 59.29C53.11 57.38 49.79 54.46 47.53 57.21C45.86 59.24 46.86 63.18 49.05 64.38C49.62 64.69 50.11 63.8 49.54 63.49Z" fill="#727272" fill-opacity="1.000000" fill-rule="nonzero"/>
		<path id="Vector" d="M51.15 70.95C50.36 71.72 49.84 73.81 51.06 74.45C52.51 75.21 53.16 72.62 53.35 71.68C53.44 71.26 52.79 71.09 52.7 71.52C52.62 71.94 52.51 72.36 52.35 72.76C52.28 72.96 52.19 73.16 52.09 73.35C51.94 73.65 51.85 73.84 51.49 73.8C50.54 73.68 51.19 71.85 51.63 71.42C51.94 71.12 51.46 70.65 51.15 70.95Z" fill="#727272" fill-opacity="1.000000" fill-rule="nonzero"/>
		<path id="Vector" d="M55.45 71C55.28 71.97 56.36 72.74 57.14 73.09C57.93 73.44 59.03 73.56 59.76 73.01C60.47 72.48 60.36 71.52 60.05 70.79C59.64 69.79 58.79 69.12 57.8 68.77C57.4 68.63 57.24 69.29 57.64 69.43C58.24 69.64 58.77 70 59.15 70.52C59.28 70.7 59.38 70.9 59.46 71.11C59.65 71.6 59.68 71.83 59.34 72.26C59.05 72.62 58.89 72.71 58.45 72.71C58.17 72.71 57.87 72.65 57.61 72.56C57.21 72.41 55.99 71.77 56.09 71.17C56.17 70.74 55.52 70.57 55.45 71Z" fill="#727272" fill-opacity="1.000000" fill-rule="nonzero"/>
		<path id="Vector" d="M59.32 66.62C60.15 66.83 60.99 66.47 61.69 66.02C62.2 65.69 62.88 65.09 62.82 64.4C62.77 63.82 62.2 63.54 61.7 63.48C60.82 63.37 59.97 63.76 59.26 64.24C58.9 64.48 59.25 65.06 59.6 64.82C59.97 64.56 60.37 64.34 60.8 64.23C61.21 64.12 62.38 63.95 62.02 64.8C61.71 65.56 60.19 66.14 59.48 65.96C59.06 65.86 58.9 66.51 59.32 66.62Z" fill="#727272" fill-opacity="1.000000" fill-rule="nonzero"/>
		<path id="Vector" d="M56.2 60.3C56.15 59.79 56.26 59.28 56.62 58.9C56.89 58.62 57.54 58.24 57.92 58.46C58.26 58.65 58.23 59.46 58.23 59.84C58.23 60.38 58.12 60.89 57.94 61.39C57.79 61.8 58.44 61.97 58.59 61.56C58.87 60.74 58.97 59.88 58.84 59.02C58.74 58.43 58.64 57.84 57.98 57.75C56.53 57.55 55.4 58.92 55.54 60.32C55.58 60.74 56.25 60.73 56.2 60.3Z" fill="#727272" fill-opacity="1.000000" fill-rule="nonzero"/>
		<path id="Vector" d="M50.01 62.56C49.49 61.9 49.05 60.71 49.22 59.86C49.33 59.34 49.45 59.19 49.97 59.14C50.5 59.09 50.63 59.24 51.01 59.56C51.4 59.87 51.78 60.2 52.16 60.51C52.49 60.79 52.95 60.3 52.62 60.03C51.68 59.24 50.17 57.43 48.97 58.81C48.04 59.88 48.67 61.94 49.44 62.92C49.7 63.26 50.28 62.91 50.01 62.56Z" fill="#727272" fill-opacity="1.000000" fill-rule="nonzero"/>
		<path id="Vector" d="M48.81 65.2C47.51 64.67 45.82 65.85 46.02 67.33C46.2 68.74 48.43 69.26 49.44 68.46C49.77 68.2 49.43 67.62 49.09 67.89C48.54 68.32 47.18 68.2 46.78 67.56C46.2 66.62 47.63 65.44 48.49 65.79C48.88 65.95 49.21 65.36 48.81 65.2Z" fill="#727272" fill-opacity="1.000000" fill-rule="nonzero"/>
	</g>
</svg>
